<svg xmlns="http://www.w3.org/2000/svg" xmlns:xlink="http://www.w3.org/1999/xlink" width="249.261" height="71.797" viewBox="0 0 249.261 71.797"><defs><clipPath id="a"><path d="M332.4,513.869a1.732,1.732,0,1,0,.485,2.4A1.732,1.732,0,0,0,332.4,513.869Z" transform="translate(-329.715 -513.579)" fill="#fff"/></clipPath><clipPath id="b"><path d="M336.947,570.2a1.732,1.732,0,1,0,2.4.474A1.732,1.732,0,0,0,336.947,570.2Z" transform="translate(-336.179 -569.911)" fill="#fff"/></clipPath></defs><g transform="translate(-218.924 -513.579)"><rect width="0.921" height="1.215" transform="translate(284.133 583.721) rotate(-60.006)" fill="#fff"/><rect width="0.921" height="1.215" transform="translate(282.028 582.506) rotate(-60.006)" fill="#fff"/><rect width="0.921" height="1.215" transform="translate(279.923 581.291) rotate(-59.992)" fill="#fff"/><rect width="0.921" height="1.215" transform="translate(277.818 580.075) rotate(-60.006)" fill="#fff"/><rect width="0.921" height="1.215" transform="translate(275.714 578.86) rotate(-59.992)" fill="#fff"/><rect width="0.921" height="1.215" transform="translate(273.609 577.645) rotate(-60.006)" fill="#fff"/><path d="M329.5,629.923l-.762-.44.461-.8.3.174.3-.174.461.8Z" transform="translate(-42.497 -44.547)" fill="#fff"/><path d="M333.238,617.493l-1.054.607.46.8,1.054-.607Zm2.1-1.214-1.048.607.46.8,1.048-.607Zm2.109-1.214-1.054.607.46.8,1.054-.607Zm2.1-1.214-1.054.607.466.8,1.048-.607Zm2.1-1.22-1.048.607.46.8,1.054-.613Zm2.109-1.214-1.054.607.46.8,1.054-.607Zm2.1-1.214-1.054.607.466.8,1.048-.607Zm2.1-1.214-1.048.607.46.8,1.054-.607Zm2.109-1.22-1.054.607.46.8,1.054-.613Zm2.1-1.214-1.054.607.466.8,1.048-.607Zm2.1-1.214-1.048.607.46.8,1.054-.607Zm2.109-1.214-1.054.607.46.8,1.054-.607Zm2.1-1.22-1.048.613.46.8,1.048-.607Z" transform="translate(-43.832 -34.572)" fill="#fff"/><path d="M377.284,602.391l-.461-.8.3-.174v-.348h.921v.88Z" transform="translate(-61.108 -33.86)" fill="#fff"/><path d="M377.314,578.7v1.214h.92V578.7Zm0-2.434v1.214h.92v-1.214Zm0-2.428v1.214h.92v-1.214Zm0-2.434v1.214h.92V571.4Zm0-2.427v1.214h.92v-1.214Zm0-2.434v1.214h.92v-1.214Zm0-2.427v1.214h.92v-1.214Zm0-2.434v1.22h.92v-1.22Zm0-2.427v1.214h.92v-1.214Zm0-2.434v1.22h.92v-1.22Zm0-2.427V555.6h.92v-1.214Zm0-2.434v1.22h.92v-1.22Zm0-2.427v1.214h.92V549.53Z" transform="translate(-61.298 -13.913)" fill="#fff"/><path d="M338.053,519.3l-.509.772,1,.662.515-.766Zm2,1.336-.509.766,1.005.662.509-.766Zm2,1.33-.509.766,1.005.668.509-.772Zm2.011,1.33-.509.766,1,.668.509-.772Zm2,1.33-.509.766,1.005.668.509-.766Zm2,1.33-.509.766,1.005.668.509-.766Zm2.011,1.33-.515.772,1.005.662.509-.766Zm2,1.336-.509.766,1,.662.509-.766Zm2,1.33-.509.766,1.005.668.509-.772Zm2,1.33-.509.766,1.005.668.509-.766Zm2.011,1.33-.509.766,1,.668.509-.766Zm2,1.33-.509.772,1.005.662.509-.766Z" transform="translate(-45.907 -2.214)" fill="#fff"/><path d="M335.782,517.8l-.509.766-1-.668.509-.766Z" transform="translate(-44.641 -1.374)" fill="#fff"/><g transform="translate(218.924 521.328)"><rect width="0.926" height="1.251" transform="translate(38.134 33.414)" fill="none"/><rect width="0.926" height="1.244" transform="translate(38.134 20.952)" fill="none"/><rect width="0.926" height="1.244" transform="translate(38.134 23.447)" fill="none"/><rect width="0.926" height="1.251" transform="translate(38.134 25.936)" fill="none"/><rect width="0.926" height="1.244" transform="translate(38.134 30.926)" fill="none"/><rect width="0.926" height="1.251" transform="translate(38.134 43.388)" fill="none"/><rect width="0.926" height="1.244" transform="translate(38.134 38.404)" fill="none"/><rect width="0.926" height="1.251" transform="translate(38.134 35.909)" fill="none"/><rect width="0.926" height="1.244" transform="translate(38.134 40.899)" fill="none"/><rect width="0.926" height="1.244" transform="translate(38.134 28.431)" fill="none"/><rect width="0.926" height="1.251" transform="translate(38.134 18.457)" fill="none"/><rect width="0.92" height="1.217" transform="translate(50.474 53.889) rotate(-60.076)" fill="none"/><path d="M294.394,609.657l1.054.607.46-.8-1.048-.607Z" transform="translate(-248.131 -558.203)" fill="none"/><path d="M297.834,611.637l1.048.613.466-.8-1.054-.607Z" transform="translate(-249.463 -558.969)" fill="none"/><path d="M284.094,603.713l1.055.607.46-.8-1.048-.613Z" transform="translate(-244.145 -555.9)" fill="none"/><path d="M287.534,605.7l1.048.607.466-.8-1.054-.607Z" transform="translate(-245.477 -556.67)" fill="none"/><rect width="0.92" height="1.217" transform="translate(44.161 50.241) rotate(-60.076)" fill="none"/><path d="M281.948,601.02l-.913.1.092.877.8.355.374-.84-.319-.141Z" transform="translate(-242.961 -555.168)" fill="none"/><path d="M272.493,580.832,287,555.7,269.98,526.22H235.941L218.924,555.7l17.017,29.479H269.98l2.054-3.549-.527-.307.46-.8Zm-14.6-7.429-.8-.356L257,572.17l.913-.1.037.349.319.141Zm.092-26.23v1.244h-.926v-1.244Zm-.926-1.244v-1.251h.926v1.251Zm.926,3.739v1.244h-.926v-1.244Zm0,2.489v1.25h-.926v-1.25Zm0,2.495V555.9h-.926v-1.244Zm0,2.495v1.244h-.926v-1.244Zm0,2.489v1.251h-.926v-1.251Zm0,2.495v1.25h-.926v-1.25Zm0,2.495v1.244h-.926v-1.244Zm0,2.495v1.244h-.926v-1.244Zm0,2.489v1.25h-.926v-1.25Zm.5-27.505a1.607,1.607,0,0,1-.478.215c-.006.006-.018.006-.025.012v1.1h-.926v-1.1a1.722,1.722,0,0,1,0-3.322,1.649,1.649,0,0,1,.466-.073h.012a1.941,1.941,0,0,1,.472.08,1.607,1.607,0,0,1,.478.214,1.671,1.671,0,0,1,.472.478,1.732,1.732,0,0,1,.294.962,1.712,1.712,0,0,1-.294.956A1.6,1.6,0,0,1,258.487,542.1Zm1.441,32.538-1.054-.607.466-.8,1.048.613Zm2.1,1.214-1.048-.607.46-.8,1.054.607Zm2.109,1.214-1.054-.607.46-.8,1.054.607Zm2.1,1.214-1.054-.607.466-.8,1.048.607Zm2.1,1.22-1.048-.613.46-.8,1.054.607Zm2.109,1.214-1.054-.607.46-.8,1.054.607Z" transform="translate(-218.924 -526.22)" fill="#fff"/></g><g transform="translate(286.838 513.579)"><path d="M332.4,513.869a1.732,1.732,0,1,0,.485,2.4A1.732,1.732,0,0,0,332.4,513.869Z" transform="translate(-329.715 -513.579)" fill="#fff"/><g clip-path="url(#a)"><rect width="0.054" height="3.943" transform="translate(-0.24 -0.24)" fill="#fff"/><rect width="0.475" height="3.943" transform="translate(-0.186 -0.24)" fill="#fff"/><rect width="0.475" height="3.943" transform="translate(0.289 -0.24)" fill="#fff"/><rect width="0.475" height="3.943" transform="translate(0.764 -0.24)" fill="#fff"/><rect width="0.475" height="3.943" transform="translate(1.239 -0.24)" fill="#fff"/><rect width="0.475" height="3.943" transform="translate(1.715 -0.24)" fill="#fff"/><rect width="0.475" height="3.943" transform="translate(2.19 -0.24)" fill="#fff"/><rect width="0.475" height="3.943" transform="translate(2.665 -0.24)" fill="#fff"/><rect width="0.475" height="3.943" transform="translate(3.14 -0.24)" fill="#fff"/><rect width="0.088" height="3.943" transform="translate(3.615 -0.24)" fill="#fff"/></g></g><path d="M362.083,548.15l-1.024.687.515.766,1.018-.687Zm-2.041,1.367-1.024.687.515.766,1.018-.687ZM358,550.89l-1.024.68.515.766,1.024-.687Zm-2.041,1.367-1.018.68.509.766,1.024-.68Zm-2.041,1.367-1.018.68.515.766,1.018-.68Zm-2.041,1.367-1.018.687.515.76,1.018-.68Zm-2.035,1.367-1.024.687.515.766,1.018-.686Zm-2.041,1.367-1.024.687.515.766,1.018-.687Zm-2.041,1.373-1.024.68.515.766,1.018-.687Zm-2.041,1.367-1.024.68.515.766,1.024-.68Z" transform="translate(-47.9 -13.379)" fill="#fff"/><path d="M377.719,545.838v.865h-.552l-.668.447-.515-.76.607-.4.006-.006.4-.619Z" transform="translate(-60.783 -12.299)" fill="#fff"/><g transform="translate(290.8 548.11)"><path d="M336.947,570.2a1.732,1.732,0,1,0,2.4.474A1.732,1.732,0,0,0,336.947,570.2Z" transform="translate(-336.179 -569.911)" fill="#fff"/><g clip-path="url(#b)"><rect width="0.276" height="3.942" transform="translate(-0.239 -0.239)" fill="#fff"/><rect width="0.206" height="3.942" transform="translate(0.037 -0.239)" fill="#fff"/><rect width="0.206" height="3.942" transform="translate(0.242 -0.239)" fill="#fff"/><rect width="0.206" height="3.942" transform="translate(0.448 -0.239)" fill="#fff"/><rect width="0.206" height="3.942" transform="translate(0.653 -0.239)" fill="#fff"/><rect width="0.206" height="3.942" transform="translate(0.859 -0.239)" fill="#fff"/><rect width="0.206" height="3.942" transform="translate(1.064 -0.239)" fill="#fff"/><rect width="0.206" height="3.942" transform="translate(1.27 -0.239)" fill="#fff"/><rect width="0.206" height="3.942" transform="translate(1.476 -0.239)" fill="#fff"/><rect width="0.206" height="3.942" transform="translate(1.681 -0.239)" fill="#fff"/><rect width="0.206" height="3.942" transform="translate(1.887 -0.239)" fill="#fff"/><rect width="0.206" height="3.942" transform="translate(2.092 -0.239)" fill="#fff"/><rect width="0.206" height="3.942" transform="translate(2.298 -0.239)" fill="#fff"/><rect width="0.206" height="3.942" transform="translate(2.503 -0.239)" fill="#fff"/><rect width="0.206" height="3.942" transform="translate(2.709 -0.239)" fill="#fff"/><rect width="0.206" height="3.942" transform="translate(2.914 -0.239)" fill="#fff"/><rect width="0.206" height="3.942" transform="translate(3.12 -0.239)" fill="#fff"/><rect width="0.206" height="3.942" transform="translate(3.325 -0.239)" fill="#fff"/><rect width="0.172" height="3.942" transform="translate(3.531 -0.239)" fill="#fff"/></g></g><g transform="translate(332.248 513.821)"><path d="M424.384,523.528a9.946,9.946,0,0,1,3.912,4.125,14.943,14.943,0,0,1,0,12.675,9.912,9.912,0,0,1-3.912,4.146,11.362,11.362,0,0,1-5.749,1.433,10.287,10.287,0,0,1-6.391-1.988,9.794,9.794,0,0,1-3.569-5.237v6.925h-1.881V513.974h1.881V529.32a9.8,9.8,0,0,1,3.569-5.237,10.287,10.287,0,0,1,6.391-1.988A11.362,11.362,0,0,1,424.384,523.528Zm-11.05,1.539a8.882,8.882,0,0,0-3.419,3.569,11.112,11.112,0,0,0-1.24,5.344,11.233,11.233,0,0,0,1.24,5.365,8.838,8.838,0,0,0,3.419,3.591,9.634,9.634,0,0,0,4.916,1.261,9.1,9.1,0,0,0,6.946-2.736,12.051,12.051,0,0,0,0-14.919,9.107,9.107,0,0,0-6.946-2.736A9.647,9.647,0,0,0,413.334,525.067Z" transform="translate(-404.955 -513.974)" fill="#fff"/><path d="M455.58,513.974v31.633h-1.924V513.974Z" transform="translate(-423.091 -513.974)" fill="#fff"/><path d="M483.632,528.656a10.169,10.169,0,0,1,4.083,4.125,14.4,14.4,0,0,1,0,12.7,10.165,10.165,0,0,1-4.083,4.125,12.774,12.774,0,0,1-11.755,0,10.265,10.265,0,0,1-4.1-4.146,14.174,14.174,0,0,1,0-12.675,10.306,10.306,0,0,1,4.1-4.125,12.774,12.774,0,0,1,11.755,0Zm-10.58,1.389a8.5,8.5,0,0,0-3.484,3.4,11.141,11.141,0,0,0-1.326,5.664,11.257,11.257,0,0,0,1.326,5.685,8.458,8.458,0,0,0,3.484,3.42,10.414,10.414,0,0,0,9.362,0,8.465,8.465,0,0,0,3.484-3.42,12.906,12.906,0,0,0,.021-11.35,8.371,8.371,0,0,0-3.463-3.4,10.5,10.5,0,0,0-9.4,0Z" transform="translate(-427.975 -519.101)" fill="#fff"/><path d="M529.879,529.51a9.517,9.517,0,0,1,3.506,6.049h-2.009a7.368,7.368,0,0,0-2.907-4.873,9.556,9.556,0,0,0-5.9-1.8A9.7,9.7,0,0,0,517.952,530a8.314,8.314,0,0,0-3.377,3.42,13.238,13.238,0,0,0,0,11.371,8.306,8.306,0,0,0,3.377,3.42,9.69,9.69,0,0,0,4.617,1.111,9.552,9.552,0,0,0,5.9-1.8,7.367,7.367,0,0,0,2.907-4.873h2.009a9.54,9.54,0,0,1-3.506,6.092,11.283,11.283,0,0,1-7.267,2.287,11.683,11.683,0,0,1-5.835-1.433,10.132,10.132,0,0,1-4-4.125,14.584,14.584,0,0,1,0-12.7,10.136,10.136,0,0,1,4-4.125,11.683,11.683,0,0,1,5.835-1.433A11.286,11.286,0,0,1,529.879,529.51Z" transform="translate(-445.41 -519.101)" fill="#fff"/><path d="M568.763,545.607,558.718,534.92v10.687h-1.924V513.974h1.924v18.851l9.832-10.431h2.522l-11.029,11.5,11.285,11.712Z" transform="translate(-463.006 -513.974)" fill="#fff"/><path d="M405.162,571.722a5.2,5.2,0,0,1,3.591-1.219,5.037,5.037,0,0,1,3.547,1.219,4.026,4.026,0,0,1,1.325,3.1,3.836,3.836,0,0,1-1.347,2.992,5.108,5.108,0,0,1-3.526,1.2,5.255,5.255,0,0,1-3.591-1.2,3.811,3.811,0,0,1-1.368-2.992A3.967,3.967,0,0,1,405.162,571.722Zm7.738,9.725v23.982h-8.421V581.447Z" transform="translate(-403.794 -535.851)" fill="#fff"/><path d="M448.778,590.764a11.187,11.187,0,0,1,2.351,7.5V612.2h-8.336V599.335a4.627,4.627,0,0,0-1.089-3.27,3.8,3.8,0,0,0-2.929-1.176,3.849,3.849,0,0,0-2.992,1.218,4.794,4.794,0,0,0-1.111,3.356V612.2H426.25V588.221h8.421v4.018a7.755,7.755,0,0,1,2.993-3.078,8.951,8.951,0,0,1,4.616-1.154A8.085,8.085,0,0,1,448.778,590.764Z" transform="translate(-412.485 -542.625)" fill="#fff"/><path d="M484.6,604.258l4.531-15.9h8.934l-8.25,23.982H479.383l-8.293-23.982h8.977Z" transform="translate(-429.838 -542.76)" fill="#fff"/><path d="M541.67,601.676H525.811q.213,4.061,3.548,4.061a3.362,3.362,0,0,0,2.052-.6,3,3,0,0,0,1.112-1.582h8.891a10.175,10.175,0,0,1-2.095,4.553,11.247,11.247,0,0,1-4.1,3.185,12.711,12.711,0,0,1-5.429,1.154,13.25,13.25,0,0,1-6.348-1.475,10.432,10.432,0,0,1-4.3-4.274,14.711,14.711,0,0,1,0-13.1,10.434,10.434,0,0,1,4.318-4.254,14.4,14.4,0,0,1,12.653-.021,10.375,10.375,0,0,1,4.254,4.146,12.508,12.508,0,0,1,1.517,6.241A10.109,10.109,0,0,1,541.67,601.676Zm-9.319-6.284a3.655,3.655,0,0,0-2.565-.94,3.912,3.912,0,0,0-2.714.94,4.079,4.079,0,0,0-1.218,2.779h7.48A3.466,3.466,0,0,0,532.352,595.391Z" transform="translate(-447.839 -542.572)" fill="#fff"/><path d="M578.882,590.177a10.068,10.068,0,0,1,3.548,6.113h-7.865a3.1,3.1,0,0,0-1.219-1.923,3.824,3.824,0,0,0-2.245-.642,2.2,2.2,0,0,0-1.431.406,1.388,1.388,0,0,0-.492,1.133,1.451,1.451,0,0,0,1.048,1.347,22.606,22.606,0,0,0,3.441,1,33.192,33.192,0,0,1,4.6,1.282,7.827,7.827,0,0,1,3.163,2.223,6.077,6.077,0,0,1,1.347,4.146,6.259,6.259,0,0,1-1.154,3.719,7.549,7.549,0,0,1-3.356,2.544,15.6,15.6,0,0,1-13.231-1.261,9.122,9.122,0,0,1-3.633-6.241h8.079a2.629,2.629,0,0,0,1.133,1.966,4.265,4.265,0,0,0,2.415.641,2.284,2.284,0,0,0,1.5-.427,1.38,1.38,0,0,0,.513-1.111,1.566,1.566,0,0,0-1.091-1.5,18.661,18.661,0,0,0-3.484-.941,29.519,29.519,0,0,1-4.488-1.218,7.645,7.645,0,0,1-3.057-2.137,5.949,5.949,0,0,1-1.3-4.083,6.52,6.52,0,0,1,2.522-5.3q2.522-2.052,7.182-2.052A11.586,11.586,0,0,1,578.882,590.177Z" transform="translate(-464.788 -542.572)" fill="#fff"/><path d="M615.514,601.485v7.182h-3.462a10.07,10.07,0,0,1-6.882-2.18q-2.481-2.18-2.48-7.224V591.7h-3.078v-7.01h3.078v-5.814h8.422v5.814h4.317v7.01h-4.317v7.738a2.124,2.124,0,0,0,.491,1.582,2.338,2.338,0,0,0,1.646.47Z" transform="translate(-479.577 -539.09)" fill="#fff"/></g></g></svg>