<svg xmlns="http://www.w3.org/2000/svg" width="405.76" height="436.326" viewBox="0 0 405.76 436.326">
  <path id="Token_Izquierdo" data-name="Token Izquierdo" d="M1081.281,5447.991a33.419,33.419,0,0,1,33.326-33.326h175.434a12.818,12.818,0,0,0,12.757-12.76h0a12.818,12.818,0,0,0-12.757-12.758h-49.265a33.41,33.41,0,0,1-33.324-33.323h0a33.41,33.41,0,0,1,33.324-33.326h112.671a33.411,33.411,0,0,1,33.326,33.326h0a33.405,33.405,0,0,1-33.326,33.323h-10.988A12.818,12.818,0,0,0,1329.7,5401.9h0a12.816,12.816,0,0,0,12.754,12.76h110.23a33.418,33.418,0,0,1,33.326,33.326h0a33.419,33.419,0,0,1-33.326,33.326h-180.76a12.817,12.817,0,0,0-12.762,12.76h0a12.819,12.819,0,0,0,12.762,12.751h120.247a33.412,33.412,0,0,1,33.326,33.325h0a33.412,33.412,0,0,1-33.326,33.325H1271.929a12.818,12.818,0,0,0-12.762,12.757h0a12.819,12.819,0,0,0,12.762,12.756H1452.7a33.412,33.412,0,0,1,33.326,33.325h0a33.407,33.407,0,0,1-33.326,33.324H1342.475a12.82,12.82,0,0,0-12.757,12.767h0a12.821,12.821,0,0,0,12.757,12.768h10.971a33.411,33.411,0,0,1,33.326,33.323h0a33.411,33.411,0,0,1-33.326,33.326h-171.46a33.411,33.411,0,0,1-33.326-33.326h0a33.411,33.411,0,0,1,33.326-33.323h108.045a12.82,12.82,0,0,0,12.757-12.768h0a12.819,12.819,0,0,0-12.757-12.767H1114.6a33.41,33.41,0,0,1-33.326-33.324h0a33.417,33.417,0,0,1,33.326-33.325H1219.5a12.817,12.817,0,0,0,12.755-12.756h0a12.816,12.816,0,0,0-12.755-12.757h-24.815v-.127a33.429,33.429,0,0,1-30.473-33.193h0a33.426,33.426,0,0,1,30.473-33.187v-.127H1219.5a12.786,12.786,0,0,0,12.755-12.751h0a12.818,12.818,0,0,0-12.755-12.763H1114.6a33.415,33.415,0,0,1-33.326-33.323Z" transform="translate(-1080.771 -5321.998)" fill="#192E44" />
</svg>
