<svg xmlns="http://www.w3.org/2000/svg" width="2741.482" height="1644.517" viewBox="0 0 2741.482 1644.517">
  <g id="triangulos" transform="translate(-4.151 931.594) rotate(-21)" opacity="0.4">
    <g id="Grupo_421" data-name="Grupo 421" transform="translate(0 0)">
      <path id="Trazado_759" data-name="Trazado 759" d="M2477.761,329.336l-.07-.012L2456.1,258.4l.109-1.179L2408.9,313.611l-32.083-7.391L2299.851,259.5l-.68-1.614-1.6,124.259-64.135,82.211-143.7,33.3-.189-.147-.146.224-.085.02-.032.131-117.1,117.17-38.944-.332L1899.6,472.646l.781-.646-.916.08-.161-.682-.389.73-71.864,6.289-17.459-27.911L1788.2,363.05l.662-1.624-89,86.732L1596.381,460.94l-125.157-78.068-.028-.236-.263.052-.073-.044-.147.091-138.007,28.231-.163-.072-.1.125-.151.03-.012.175-88.724,111.237-122.991,85.584-38.212-41.182,1.787.541-2.682-1.57-7.918-147.8-.03-.574L935.851,480.532l-46.96-40.052,9.174-32.016.095-.332-92.507-38.741,21.2-129.994,85.411-90.875.441-.471-112.63-31.9,52.822-82.926,1.1-.384L725.5,0l1.888,75.923-30.559,10.6.441-1.4-1.29,1.692-.229.079.044.167L594.168,220.42l-101.616-3.8,1.648-.881-3.008.785-110.1-98.908-.431-.384L327.915,259.163l-61.523,4.884-16.155-29.124-.169-.3-92.05,37.709.075-.129-.944.471L82.006,225.445l-.089-.056L0,221.257l111.461,74.877.058.04-9,73.589-.575,1.032,66.1-32.38,26.164,19.628L143.986,516.116l.956-.779,104.891-26.78-3.224-56.43.127-.1-.078-.115L297.6,320.872,389.542,271.7l82.644,15.853L451.554,366.3l83.22-66.743.06.01.083-.1L689.456,239.8l35.471,16.085L698.1,399.4l-.976.276.869.3-.129.686.652-.507,68.246,23.369,4.651,32.594-15.884,88.619-1.264,1.219L870.78,502.728l99.781,30.247,82.787,122.088-.07.225.264.06.048.071.173-.022,137.6,30.115.121.129.139-.072.209.044.06-.185,125.909-65.6.43.559.056-.815,1.8-.936-1.747.24,10.49-147.954,58.177-35.787,93.438,40.122-1.855.229,3.087.35,67.129,131.9.264.515,100.292-113.437,59.16,17.584,4.586,32.986.05.346,100.379-2.073,53.045,71.021.012.254.292,0,73.305,32.61.117.5.187-.187,86.971,109.65.238,2.121,39.435-165.47,94.438-37.7-1.149,1.471,2.429-1.936,140.74,45.8.549.181-9.3-151.132,54.269-29.4,26.848,20.293,69.51-72.444,87.853,12.726.1.016L2610,352.622Zm.749.929,128.57,22.639-73.6,28.277Zm-1.654-1-26.824-6.178,5.875-62.625ZM2455.2,259.655l-5.936,63.251-39.5-9.1Zm-90.675,153.454,78.795-42.684-67.254,70.089Zm-.306-.727-12.418-29.5,57.4-68.4,39.993,9.212-4.218,44.941Zm-69.315,37.1,3.411-66.441,32.018,24.2Zm3.661-67.236,37.093-35.678,15.231,36.177-20.049,23.9Zm52.671,1.312,12.291,29.2-14.33,7.76-17.73-13.4Zm.223-1.489-15.193-36.083,40.52-38.971,31.549,7.267Zm24.571-75.414-40.09,38.556-35.568-84.478Zm-40.7,39.14-36.969,35.554,1.542-119.693ZM2297.5,383.51l-3.429,66.8-59.424,13.77Zm-4.65,67.886L2165.138,553.181l68.745-88.122ZM2087.17,501.1,2011.7,615.39l-38.421-.326ZM1972.5,615.841l37.58.32-67.789,29.905Zm-1.1-.008-30.646,30.66-7.333-30.984Zm-31.718,29.533-21.007-29.984,13.935.117Zm-21.558-30.772-53.5-76.364-.04-.059,34.433-64.57,33.407,141.113Zm-53.629-75.181,52.663,75.168-49.8-.423Zm-138.883-22.749,12.078-29.638,88.949-7.783,21.77,34.793-34.763,28.8Zm85.6,26.263-97.121,2.006,11.221-27.539Zm-111.457-93.61,5.528,39.755-54.923,4.818Zm.736-.384,51.459,1-14.812,36.347L1706.064,489Zm36.314,38.17-11.951,29.336-15.62-4.643-3.061-22.011Zm112.018,27.6,14.658,23.432-48.518,4.616Zm15.209,22.832-14.6-23.337,48.439-40.13Zm33.9-64.537-48.923,40.528-21.5-34.364Zm-159.917,13.207,14.772-36.254,56.208,1.1,17.169,27.444Zm70.7-35.948-55.609-1.084,34.584-84.886Zm-22-85.644-34.452,84.544-51.28-1Zm-87.865,84.459-49.658,44.808L1597.44,461.6Zm-51.292,44.714-162.282-18.335,110.923-13.7Zm-315.378-81.181-4.1,57.86-82.544,50.771ZM1243.1,523.735l-35.423,110.084-56.162,7.584L1121.1,608.627Zm-162.453,41.623L936.63,481.039l136.158-62.38ZM728.692,96.751l70.152,19.868L731.8,221.875Zm2.27,123.01L696.775,87.711,727.9,96.525Zm54.363,64.449,19.354,84.831-46.9-15.666Zm.109-1.9-53.262-58.921,100.552-24.919-6.613,40.559ZM738.5,261.182l-12.692-5.757,5.639-30.171Zm-6.405-36.7,51.771,57.273-44.487-20.176ZM784.925,283.1,757.249,352.59l-17.682-90.064ZM803.883,369.6l-42.321,11.923-3.9-27.364Zm1.24.467L875,429.664l-23.049,22.2-84.477-28.929-5.8-40.631Zm2.264.9,89.6,37.52-21.417,20.63ZM875.6,430.175,888,440.75l-6.122,21.365-29.092-9.961Zm6.061,32.7-11.146,38.894L823.879,480l28.271-27.231Zm.742.253,52.162,17.853-63.217,20.733Zm195.612,101.6L971.057,532.3l-33.972-50.1ZM933.964,479.952,882.621,462.37l6.035-21.061Zm-57.794-50.32,20.739-19.979-8.673,30.268Zm-71.019-62.044L785.856,283.01l40.029-42.589Zm106.1-219.132-84.174,89.552,6.522-39.995.095-.588L732.3,222.553l67.335-105.712ZM799.282,115.93l-70.611-20-.483-19.453L851.7,33.64ZM726.313,1.018,851.273,32.956l-123.106,42.7Zm1.095,75.728.473,18.96-30.35-8.6ZM696.187,88.571l34.747,134.206-76.972-.137Zm-1.014.6L653.143,222.628l-58.017-2.171ZM594.544,221.219l57.617,2.157L536.328,297.611Zm-59.814,77.2-42.975-81.044,101.83,3.813ZM380.994,118.585l109.288,98.173L328.822,258.972ZM249.1,298.714l28.012-13.72,19.624,35.383-48.37,17.582Zm-3.26,132.018L195.278,358.09l52.276-19ZM157.366,273.5l91.553-7.271-.6,32L168.128,337.5,135.3,312.869Zm-22.7,38.9-22.109-16.585,43.6-21.767Zm114.268-46.959-89.331,7.1L249.492,235.7Zm.769.726,16.245-1.292,10.778,19.437-27.615,13.529Zm47.577,53.588-19.467-35.1,49.509-24.257ZM487.975,218.172,389.42,270.879l-59.446-11.4Zm-161.8,41.915-48.739,23.874L266.808,264.8Zm-76.452,5.284.539-28.79,15.27,27.535ZM112.089,295.166,82.656,226.779l73.671,46.3ZM81.533,226.155l29.624,68.83-108.37-72.8Zm30.728,70.411,22.017,16.517-30.75,54.876Zm-8.407,72.415,31.06-55.421,32.425,24.327Zm64.98-30.954L248.3,299.1l-.734,39.146-52.838,19.206ZM194.8,358.774l50.88,73.1-100.143,81.96ZM146.381,514.158,245.8,432.791l-.02,1.032.127-.276,3.109,54.407Zm100.254-84.081,1.708-91.275,48.207-17.525Zm51.574-110.423,30.2-59.677,59.907,11.488Zm92.434-48.541,99.838-53.389-18.095,69.069Zm62.274,93.094,20.043-76.5,60.8,11.664Zm20.242-77.265,18.053-68.916L533.939,298.6Zm64.992,10.436,115.31-73.9,34.992,15.869ZM689.48,238.95l-34.22-15.519,74.082.129Zm1,.455,40.444-15.614-5.852,31.3Zm35.179,16.815,13.028,5.908,17.962,91.488.014.071L699.02,398.765Zm31.25,98.27,3.888,27.249L700.256,398.8Zm-57.15,45.261,61.153-17.227,5.725,40.13ZM851.315,452.48l-28.2,27.161-50.944-23.782L767.6,423.81ZM772.11,456.7l50.4,23.526L756.5,543.811Zm-14.589,87.216,65.753-63.332,46.477,21.693ZM872.07,502.3l63.557-20.844,34.234,50.487Zm181.574,151.8-81.89-120.76,108.835,32.988Zm27.611-87.269,38.659,41.665-65.427,45.531Zm39.2,42.251,30.111,32.453-95.225,12.857Zm-64.42,46.01,95.185-12.855,39.214,42.269ZM1191.4,684.4l-39.235-42.289,55.24-7.458Zm.835-.03,16.034-49.833,107.472-14.515Zm16.3-50.662,35.431-110.123,73.223,95.451ZM1317.6,618.27l-73.194-95.414,83.6-51.425Zm11.3-148.31,4.113-58.008,53.114,22.808Zm58.045-35.7-52.98-22.749,134.792-27.573Zm83.592-50.5,10.925,91.082-93.635-40.206Zm.8.111,123.8,77.221-112.863,13.941Zm77.9,223-66.632-130.93,165.835,18.729Zm102.078-112.288,54.063-4.733,3.019,21.7Zm73.23,22.586-10.865,26.668-4.338-31.187Zm89.909,26.42,49.222-4.685,2.847,74.394Zm54.394,71.365,48.847.417,21.691,30.966Zm72.295,32.467,70.427-31.06,15.724,139.676Zm86.832,107.657-15.654-139.04,53.92-21.524Zm38.488-161.5-53.546,21.373L2088.74,500.15Zm23.4-94.813,72.13,56.673-94.642,37.783Zm.646-.491,142.141-32.938L2162.717,555Zm73.078,57.13L2294.1,451.39l9.2,149.488Zm132.475-106.114,34.882-41.575,17.481,13.211Zm67.753-35.809L2375,440.024l-25.116-18.984Zm86.127-89.613,26.935,6.2-31.04,37.572Zm27.623,6.6,54.619,50.592-86.113-12.474Z" transform="translate(2.532 4.986)" fill="#a0d4dd"/>
      <g id="Grupo_420" data-name="Grupo 420">
        <path id="Trazado_760" data-name="Trazado 760" d="M14.062,8.044A7.065,7.065,0,1,1,8.046.069,7.064,7.064,0,0,1,14.062,8.044Z" transform="translate(292.764 318.508)" fill="#a0d4dd"/>
        <path id="Trazado_761" data-name="Trazado 761" d="M14.061,8.044A7.064,7.064,0,1,1,8.044.069,7.063,7.063,0,0,1,14.061,8.044Z" transform="translate(244.89 486.177)" fill="#a0d4dd"/>
        <path id="Trazado_762" data-name="Trazado 762" d="M14.061,8.044A7.064,7.064,0,1,1,8.044.069,7.064,7.064,0,0,1,14.061,8.044Z" transform="translate(486.554 214.875)" fill="#a0d4dd"/>
        <path id="Trazado_763" data-name="Trazado 763" d="M10.936,6.256A5.494,5.494,0,1,1,6.258.054,5.494,5.494,0,0,1,10.936,6.256Z" transform="translate(246.932 234.605)" fill="#a0d4dd"/>
        <path id="Trazado_764" data-name="Trazado 764" d="M10.936,6.258A5.494,5.494,0,1,1,6.258.054,5.494,5.494,0,0,1,10.936,6.258Z" transform="translate(377.864 117.395)" fill="#a0d4dd"/>
        <path id="Trazado_765" data-name="Trazado 765" d="M10.936,6.256A5.494,5.494,0,1,1,6.258.054,5.494,5.494,0,0,1,10.936,6.256Z" transform="translate(99.933 369.379)" fill="#a0d4dd"/>
        <path id="Trazado_766" data-name="Trazado 766" d="M10.936,6.256A5.494,5.494,0,1,1,6.258.054,5.493,5.493,0,0,1,10.936,6.256Z" transform="translate(191.702 357.387)" fill="#a0d4dd"/>
        <path id="Trazado_767" data-name="Trazado 767" d="M10.936,6.258A5.494,5.494,0,1,1,6.256.054,5.494,5.494,0,0,1,10.936,6.258Z" transform="translate(650.466 222.521)" fill="#a0d4dd"/>
        <path id="Trazado_768" data-name="Trazado 768" d="M10.936,6.258A5.494,5.494,0,1,1,6.258.054,5.494,5.494,0,0,1,10.936,6.258Z" transform="translate(693.26 86.637)" fill="#a0d4dd"/>
        <path id="Trazado_769" data-name="Trazado 769" d="M10.935,6.257A5.493,5.493,0,1,1,6.256.053,5.492,5.492,0,0,1,10.935,6.257Z" transform="translate(909.011 147.744)" fill="#a0d4dd"/>
        <path id="Trazado_770" data-name="Trazado 770" d="M10.936,6.256A5.494,5.494,0,1,1,6.256.054,5.494,5.494,0,0,1,10.936,6.256Z" transform="translate(78.834 225.268)" fill="#a0d4dd"/>
        <path id="Trazado_771" data-name="Trazado 771" d="M7.812,4.468A3.925,3.925,0,1,1,4.469.039,3.921,3.921,0,0,1,7.812,4.468Z" transform="translate(155.732 274.18)" fill="#a0d4dd"/>
        <path id="Trazado_772" data-name="Trazado 772" d="M7.812,4.469A3.925,3.925,0,1,1,4.468.038,3.925,3.925,0,0,1,7.812,4.469Z" transform="translate(0 222.782)" fill="#a0d4dd"/>
        <path id="Trazado_773" data-name="Trazado 773" d="M7.812,4.471A3.925,3.925,0,1,1,4.469.038,3.926,3.926,0,0,1,7.812,4.471Z" transform="translate(110.286 296.868)" fill="#a0d4dd"/>
        <path id="Trazado_774" data-name="Trazado 774" d="M7.812,4.47A3.925,3.925,0,1,1,4.469.038,3.925,3.925,0,0,1,7.812,4.47Z" transform="translate(244.814 433.01)" fill="#a0d4dd"/>
        <path id="Trazado_775" data-name="Trazado 775" d="M7.812,4.469A3.925,3.925,0,1,1,4.469.038,3.924,3.924,0,0,1,7.812,4.469Z" transform="translate(143.367 516.036)" fill="#a0d4dd"/>
        <path id="Trazado_776" data-name="Trazado 776" d="M7.812,4.47A3.925,3.925,0,1,1,4.469.039,3.924,3.924,0,0,1,7.812,4.47Z" transform="translate(326.803 260.595)" fill="#a0d4dd"/>
        <path id="Trazado_777" data-name="Trazado 777" d="M7.812,4.468A3.925,3.925,0,1,1,4.47.039,3.923,3.923,0,0,1,7.812,4.468Z" transform="translate(533.277 300.202)" fill="#a0d4dd"/>
        <path id="Trazado_778" data-name="Trazado 778" d="M7.812,4.468A3.925,3.925,0,1,1,4.469.039,3.927,3.927,0,0,1,7.812,4.468Z" transform="translate(450.842 366.317)" fill="#a0d4dd"/>
        <path id="Trazado_779" data-name="Trazado 779" d="M11.321,12.7A7.065,7.065,0,1,1,12.705,2.81,7.064,7.064,0,0,1,11.321,12.7Z" transform="translate(866.234 500.235)" fill="#a0d4dd"/>
        <path id="Trazado_780" data-name="Trazado 780" d="M11.319,12.7A7.064,7.064,0,1,1,12.706,2.81,7.066,7.066,0,0,1,11.319,12.7Z" transform="translate(1076.546 563.986)" fill="#a0d4dd"/>
        <path id="Trazado_781" data-name="Trazado 781" d="M8.8,9.881a5.5,5.5,0,1,1,1.077-7.7A5.5,5.5,0,0,1,8.8,9.881Z" transform="translate(894.725 407.847)" fill="#a0d4dd"/>
        <path id="Trazado_782" data-name="Trazado 782" d="M8.8,9.882a5.5,5.5,0,1,1,1.077-7.7A5.5,5.5,0,0,1,8.8,9.882Z" transform="translate(722.945 0)" fill="#a0d4dd"/>
        <path id="Trazado_783" data-name="Trazado 783" d="M8.805,9.882a5.5,5.5,0,1,1,1.076-7.7A5.5,5.5,0,0,1,8.805,9.882Z" transform="translate(1070.188 417.552)" fill="#a0d4dd"/>
        <path id="Trazado_784" data-name="Trazado 784" d="M8.8,9.882a5.494,5.494,0,1,1,1.077-7.7A5.494,5.494,0,0,1,8.8,9.882Z" transform="translate(695.482 399.204)" fill="#a0d4dd"/>
        <path id="Trazado_785" data-name="Trazado 785" d="M8.8,9.879A5.494,5.494,0,1,1,9.881,2.186,5.49,5.49,0,0,1,8.8,9.879Z" transform="translate(768.852 455.616)" fill="#a0d4dd"/>
        <path id="Trazado_786" data-name="Trazado 786" d="M8.8,9.881a5.494,5.494,0,1,1,1.077-7.7A5.494,5.494,0,0,1,8.8,9.881Z" transform="translate(1188.611 684.645)" fill="#a0d4dd"/>
        <path id="Trazado_787" data-name="Trazado 787" d="M8.8,9.882a5.494,5.494,0,1,1,1.079-7.7A5.493,5.493,0,0,1,8.8,9.882Z" transform="translate(1314.955 618.821)" fill="#a0d4dd"/>
        <path id="Trazado_788" data-name="Trazado 788" d="M8.8,9.881a5.494,5.494,0,1,1,1.077-7.7A5.492,5.492,0,0,1,8.8,9.881Z" transform="translate(782.464 282.382)" fill="#a0d4dd"/>
        <path id="Trazado_789" data-name="Trazado 789" d="M6.29,7.056a3.924,3.924,0,1,1,.769-5.5A3.925,3.925,0,0,1,6.29,7.056Z" transform="translate(803.824 370.695)" fill="#a0d4dd"/>
        <path id="Trazado_790" data-name="Trazado 790" d="M6.288,7.056a3.924,3.924,0,1,1,.771-5.5A3.922,3.922,0,0,1,6.288,7.056Z" transform="translate(730.047 224.232)" fill="#a0d4dd"/>
        <path id="Trazado_791" data-name="Trazado 791" d="M6.29,7.057a3.924,3.924,0,1,1,.769-5.5A3.925,3.925,0,0,1,6.29,7.057Z" transform="translate(831.815 199.011)" fill="#a0d4dd"/>
        <path id="Trazado_792" data-name="Trazado 792" d="M6.288,7.058a3.924,3.924,0,1,1,.771-5.5A3.924,3.924,0,0,1,6.288,7.058Z" transform="translate(851.242 33.961)" fill="#a0d4dd"/>
        <path id="Trazado_793" data-name="Trazado 793" d="M6.288,7.059a3.925,3.925,0,1,1,.771-5.5A3.924,3.924,0,0,1,6.288,7.059Z" transform="translate(755.644 354.602)" fill="#a0d4dd"/>
        <path id="Trazado_794" data-name="Trazado 794" d="M6.288,7.058a3.925,3.925,0,1,1,.771-5.5A3.921,3.921,0,0,1,6.288,7.058Z" transform="translate(754.503 545.993)" fill="#a0d4dd"/>
        <path id="Trazado_795" data-name="Trazado 795" d="M6.29,7.059a3.925,3.925,0,1,1,.769-5.5A3.925,3.925,0,0,1,6.29,7.059Z" transform="translate(934.393 482.051)" fill="#a0d4dd"/>
        <path id="Trazado_796" data-name="Trazado 796" d="M6.292,7.057a3.924,3.924,0,1,1,.769-5.5A3.929,3.929,0,0,1,6.292,7.057Z" transform="translate(1052.386 656.059)" fill="#a0d4dd"/>
        <path id="Trazado_797" data-name="Trazado 797" d="M.273,9.007A7.064,7.064,0,1,1,9,13.861,7.068,7.068,0,0,1,.273,9.007Z" transform="translate(2293.423 380.205)" fill="#a0d4dd"/>
        <path id="Trazado_798" data-name="Trazado 798" d="M.274,9a7.065,7.065,0,1,1,8.733,4.854A7.063,7.063,0,0,1,.274,9Z" transform="translate(2158.25 553.477)" fill="#a0d4dd"/>
        <path id="Trazado_799" data-name="Trazado 799" d="M.213,7.006A5.494,5.494,0,1,1,7.006,10.78,5.494,5.494,0,0,1,.213,7.006Z" transform="translate(2372.966 440.708)" fill="#a0d4dd"/>
        <path id="Trazado_800" data-name="Trazado 800" d="M.214,7A5.494,5.494,0,1,1,7,10.781,5.491,5.491,0,0,1,.214,7Z" transform="translate(2300.761 600.918)" fill="#a0d4dd"/>
        <path id="Trazado_801" data-name="Trazado 801" d="M.213,7A5.493,5.493,0,1,1,7,10.779,5.49,5.49,0,0,1,.213,7Z" transform="translate(2452.74 257.929)" fill="#a0d4dd"/>
        <path id="Trazado_802" data-name="Trazado 802" d="M.213,7a5.494,5.494,0,1,1,6.794,3.777A5.494,5.494,0,0,1,.213,7Z" transform="translate(2373.703 306.078)" fill="#a0d4dd"/>
        <path id="Trazado_803" data-name="Trazado 803" d="M.212,7a5.5,5.5,0,1,1,6.793,3.773A5.5,5.5,0,0,1,.212,7Z" transform="translate(2008.945 615.275)" fill="#a0d4dd"/>
        <path id="Trazado_804" data-name="Trazado 804" d="M.213,7A5.494,5.494,0,1,1,7,10.778,5.491,5.491,0,0,1,.213,7Z" transform="translate(2024.885 756.844)" fill="#a0d4dd"/>
        <path id="Trazado_805" data-name="Trazado 805" d="M.213,7.006A5.495,5.495,0,1,1,7,10.779,5.5,5.5,0,0,1,.213,7.006Z" transform="translate(2530.427 381.127)" fill="#a0d4dd"/>
        <path id="Trazado_806" data-name="Trazado 806" d="M.152,5A3.925,3.925,0,1,1,5,7.7,3.925,3.925,0,0,1,.152,5Z" transform="translate(2443.945 369.942)" fill="#a0d4dd"/>
        <path id="Trazado_807" data-name="Trazado 807" d="M.152,5A3.924,3.924,0,1,1,5,7.7,3.923,3.923,0,0,1,.152,5Z" transform="translate(2607.146 353.823)" fill="#a0d4dd"/>
        <path id="Trazado_808" data-name="Trazado 808" d="M.153,5A3.924,3.924,0,1,1,5,7.7,3.921,3.921,0,0,1,.153,5Z" transform="translate(2476.301 330.782)" fill="#a0d4dd"/>
        <path id="Trazado_809" data-name="Trazado 809" d="M.151,5A3.925,3.925,0,1,1,5,7.7,3.928,3.928,0,0,1,.151,5Z" transform="translate(2298.145 260.833)" fill="#a0d4dd"/>
        <path id="Trazado_810" data-name="Trazado 810" d="M.151,5A3.925,3.925,0,1,1,5,7.7,3.925,3.925,0,0,1,.151,5Z" transform="translate(2293.056 451.683)" fill="#a0d4dd"/>
        <path id="Trazado_811" data-name="Trazado 811" d="M.152,5A3.924,3.924,0,1,1,5,7.7,3.927,3.927,0,0,1,.152,5Z" transform="translate(2088.245 499.141)" fill="#a0d4dd"/>
        <path id="Trazado_812" data-name="Trazado 812" d="M.89,3.635a7.065,7.065,0,1,1,2.745,9.607A7.062,7.062,0,0,1,.89,3.635Z" transform="translate(1695.507 446.45)" fill="#a0d4dd"/>
        <path id="Trazado_813" data-name="Trazado 813" d="M.891,3.633A7.066,7.066,0,1,1,3.635,13.24,7.07,7.07,0,0,1,.891,3.633Z" transform="translate(1477.402 473.391)" fill="#a0d4dd"/>
        <path id="Trazado_814" data-name="Trazado 814" d="M.692,2.828A5.493,5.493,0,1,1,2.827,10.3,5.5,5.5,0,0,1,.692,2.828Z" transform="translate(1710.54 544.826)" fill="#a0d4dd"/>
        <path id="Trazado_815" data-name="Trazado 815" d="M.692,2.829A5.495,5.495,0,1,1,2.825,10.3,5.493,5.493,0,0,1,.692,2.829Z" transform="translate(1546.197 607.055)" fill="#a0d4dd"/>
        <path id="Trazado_816" data-name="Trazado 816" d="M.693,2.825A5.495,5.495,0,1,1,2.826,10.3,5.493,5.493,0,0,1,.693,2.825Z" transform="translate(1896.194 471.991)" fill="#a0d4dd"/>
        <path id="Trazado_817" data-name="Trazado 817" d="M.693,2.828A5.493,5.493,0,1,1,2.828,10.3,5.492,5.492,0,0,1,.693,2.828Z" transform="translate(1806.259 450.15)" fill="#a0d4dd"/>
        <path id="Trazado_818" data-name="Trazado 818" d="M.693,2.826A5.494,5.494,0,1,1,2.828,10.3,5.492,5.492,0,0,1,.693,2.826Z" transform="translate(1329.699 410.863)" fill="#a0d4dd"/>
        <path id="Trazado_819" data-name="Trazado 819" d="M.692,2.827A5.494,5.494,0,1,1,2.827,10.3,5.491,5.491,0,0,1,.692,2.827Z" transform="translate(1240.866 522.237)" fill="#a0d4dd"/>
        <path id="Trazado_820" data-name="Trazado 820" d="M.692,2.828A5.495,5.495,0,1,1,2.827,10.3,5.5,5.5,0,0,1,.692,2.828Z" transform="translate(1864.012 614.039)" fill="#a0d4dd"/>
        <path id="Trazado_821" data-name="Trazado 821" d="M.495,2.018A3.925,3.925,0,1,1,2.02,7.357,3.926,3.926,0,0,1,.495,2.018Z" transform="translate(1812.34 544.326)" fill="#a0d4dd"/>
        <path id="Trazado_822" data-name="Trazado 822" d="M.495,2.019A3.925,3.925,0,1,1,2.018,7.356,3.925,3.925,0,0,1,.495,2.019Z" transform="translate(1939.138 648.331)" fill="#a0d4dd"/>
        <path id="Trazado_823" data-name="Trazado 823" d="M.5,2.018A3.926,3.926,0,1,1,2.02,7.356,3.928,3.928,0,0,1,.5,2.018Z" transform="translate(1862.907 539.515)" fill="#a0d4dd"/>
        <path id="Trazado_824" data-name="Trazado 824" d="M.5,2.019A3.925,3.925,0,1,1,2.017,7.355,3.921,3.921,0,0,1,.5,2.019Z" transform="translate(1786.396 364.08)" fill="#a0d4dd"/>
        <path id="Trazado_825" data-name="Trazado 825" d="M.495,2.017A3.924,3.924,0,1,1,2.02,7.356,3.923,3.923,0,0,1,.495,2.017Z" transform="translate(1647.846 495.432)" fill="#a0d4dd"/>
        <path id="Trazado_826" data-name="Trazado 826" d="M.5,2.021A3.925,3.925,0,1,1,2.018,7.356,3.923,3.923,0,0,1,.5,2.021Z" transform="translate(1469.463 384.166)" fill="#a0d4dd"/>
      </g>
    </g>
    <g id="Grupo_423" data-name="Grupo 423" transform="translate(824.35 276.853)">
      <path id="Trazado_827" data-name="Trazado 827" d="M85.4,338.018l.046,0,19.861,42.8.036.751,24.845-39.711,20.872,1.827,52.628,22.655.572.96-9.949-78.458,33.167-57.47,87.633-33.662.131.076.073-.155.052-.02.008-.084,63.471-84.175,24.575-3.226L437.146,196.7l-.435.477.569-.131.161.415.181-.5,44.738-10.3,13.467,16.05,21.194,53.232-.274,1.083,48.441-62.513,64.093-17.183L715.046,215.5l.038.145.163-.059.05.024.085-.071,84.488-29.966.111.03.051-.087.093-.032-.008-.113,46.106-77.931,69.966-64.791L943.9,65.234l-1.173-.183,1.827.752,18.029,92.449.068.36,81.2-51.89,33.129,21.1-2.958,20.987-.03.219,61.72,16.256-1.892,83.8-45.814,64.809-.237.334,73.8,10.17-25.977,56.925-.662.338,83.88,9.365-7.886-47.686,18.326-9.371-.155.918.664-1.181.137-.068-.042-.1,52.288-93.016,64.38-6.566-.962.7,1.827-.761,78.117,52.624.3.205,20.723-94.106,38.345-8.506,12.75,16.93.132.179,54.689-31.887-.036.089.553-.381,51.525,23.136.059.028,51.995-4.622-76.851-37.359-.042-.02-.817-47.175.273-.7L1540.3,128.564,1522.08,118.5l17.71-104.056-.535.576-63.747,26.13,7.011,35.28-.07.076.059.064L1460.2,151.05l-53.61,39.1-53.484-2.7L1359.156,136,1312.595,185.4l-.038,0-.042.073-92.136,51.238L1196.6,229.7l4.246-92.817.592-.26-.573-.111.02-.447-.366.378-45.074-8.709-5.808-20.131,2.2-57.255.688-.877-69.619,37.522L1017.35,76.73,954.4,7.087l.024-.151-.171-.012-.036-.042-.107.03L864.731.071,864.645,0l-.083.056-.135-.01-.022.123L790.837,52.618l-.318-.314.034.517-1.051.749,1.081-.3,6.44,94.175-33.511,27.685L701.085,158.08l1.147-.308-1.976.052L646.313,80.614l-.211-.3-53.2,80.34-38.836-5.862-5.8-20.387-.06-.213-63.08,10.16-39.7-40.082-.03-.159-.185.024L396.131,90.048l-.117-.3-.1.135L331.426,28.442l-.336-1.314L320.831,134.895l-56.194,32.09.594-1.03-1.36,1.435-92.742-16.455-.362-.064L189.955,245.3l-31.61,23.315L139.637,258.2l-37.421,51.787-56.492-.272H45.66L0,335.006Zm-.553-.519L1.815,334.571,45.71,310.256Zm1.133.487,17.449,1.525,1.821,39.989Zm19.789,41.959-1.837-40.389,25.7,2.252Zm43.613-104.714-45.895,33.853,36.2-50.109Zm.256.431,10.43,17.5-30.14,48.173-26.018-2.278-1.308-28.7Zm40.414-29.5,3.711,42.176-22.315-12.428Zm3.624,42.7-20.234,25.756L160.65,293.166l10.529-16.831Zm-33.312,3.817-10.321-17.316,8.345-6.154,12.358,6.88Zm-.01.96,12.758,21.4-22.1,28.139-20.524-1.8Zm-8.834,49.7L173.382,315.5l29.869,50.1Zm22.2-28.257,20.164-25.669,9.584,75.573Zm20.514-27.1-3.729-42.4,36.236-13.921Zm-3.055-43.195,71.512-75.418-35.554,61.6Zm125.243-49.473L353.9,116.622l24.245-3.181Zm62.153-82.427-23.715,3.111,40.087-24.824Zm.695-.093,16.609-22.027,7.357,18.882ZM396.65,91.38l15.883,17.042-8.794,1.155Zm16.3,17.491,40.452,43.41.03.032-16.006,43.732-33.5-85.989Zm40.429,42.653-39.822-42.732,31.425-4.125Zm89.539,2.087-5,19.743-55.376,12.754L465.759,166.1l19.369-21.216Zm-56.267-9,61.032-9.832-4.643,18.346Zm78.5,49.165-6.991-24.569,34.189-7.878Zm-.429.308L532.2,197.989l6.128-24.215,19.344-4.455Zm-26.257-20.854,4.946-19.544,10.253,1.549,3.872,13.6Zm-73.031-7.516L454.13,152.238l30.171-7.188Zm-11.6-13.048L465.1,166.083l-26.989,29.565ZM438.16,196.33l27.259-29.859L482,186.235ZM537.784,173.9l-6.111,24.154-35.524,4.268-13.241-15.783ZM496.4,202.794l35.143-4.222-14.31,56.548Zm21.421,52.037,14.256-56.323,32.408-3.892Zm47.926-60.981,27.345-32.622,35.467,15.781Zm28.384-32.7,103.9-2.761-68.7,18.421ZM800.055,184.49l-2.517-36.828,47.545-39.281ZM846.4,106.6l12.615-72.506,34.727-9.736L915.8,42.329Zm98.715-40.565,98.206,40.44-80.31,51.325Zm263.156,264.3-45.965-6.335,32.97-72.251ZM1195.987,253l33.193,80.209-20.393-2.811Zm-39.947-35.823-19.683-51.759,30.942,5.737Zm.1,1.2,38.766,32.437-61.175,24.577.59-26.146Zm31.441,9.18,8.508,2.507-.892,19.513Zm7.276,22.564-37.683-31.531,29.819,8.792Zm-38.465-32.282L1167.7,171.6l19.087,55.2ZM1136.812,165l25.619-11.247,4.876,16.9Zm-.823-.185-49.3-31.4,12.569-16.028,55.794,10.782,7.238,25.1Zm-1.507-.368L1074.7,148.7l11.679-14.889Zm-48.213-31.3-8.748-5.57,1.974-14.006,19.214,3.713Zm-6.7-20.071,3.594-25.5,31.314,9.607-15.417,19.655Zm-.489-.094-34.451-6.653,38.015-18.642ZM946.826,66.2l70.271,11,25.83,28.579Zm98.268,40.723,33.91,6.554-1.946,13.8Zm40.862,26.619-11.308,14.418,2.8-19.839Zm50.231,32.837,19.622,51.6-21.473,30.372Zm-47.537,147.467,45.151-63.865-.582,25.782-.006.378,61.684-24.78-33.113,72.564Zm73.434,10.625,46.268,6.375,2.021,12.219-74.063,37.89Zm56.126,65.986-81.574-9.108,73.822-37.767Zm-7.369-47.632-1.972-11.909,19.888,2.741Zm18.634-10.207L1195.739,251.1l48.523-6.7Zm.585-.467,14.716-87.82,36.757-3.749Zm51.773-92.1-36.5,3.721,66.458-57Zm30.889-53.93,34.233,47.288-64.513,6.578ZM1425.479,285.9l-77.539-52.234,98.039-40.848Zm67.24-125.163-16.445,11.12-15.489-20.57,28.935-15.348Zm-9.589-83.491,38.271,41.325-31.27,16.585Zm69.628,91.3L1495.7,181.2l-2.447-20.22,47.076-31.829,22.862,12.627Zm10.873-26.52,15.4,8.5-25.561,17.566ZM1495.757,181.7l55.675-12.352-53.4,31.139Zm-.551-.39-10.124,2.246-8.506-11.3,16.211-10.961Zm-34.711-29.577,15.366,20.405L1446.8,191.789Zm-111.227,80.839,57.468-41.913,38.472,1.944Zm98.28-40.689,28.611-19.347,8.388,11.138Zm47.719-10.076,2.2,18.193-12.052-16.006Zm84.115-30.915,24.583,40.5-50.516-22.681Zm25.345,40.8-24.741-40.768,74.722,36.322Zm-25.578-41.667-15.332-8.468,14.539-37.3Zm-1.089-46.38-14.686,37.669-22.581-12.473Zm-38.222,25.241-46.652,31.541-2.99-24.735,31.607-16.767Zm-18.193-10.786L1483.13,76.509l55.884-60.488Zm16.809-102.2L1482.97,75.943l-.076-.654-.056.185-6.76-34.016Zm-55.768,61.837,6.971,57.677-28.834,15.3Zm-22.765,74.142-13.772,40.277-38.77-1.958Zm-53.977,38.745-58.212,42.456,5.313-45.126Zm-47.458-53.18-5.884,49.986-39.349-1.988Zm-5.942,50.483-5.3,45.026-34.036-47.014Zm-41.883-.845L1244.5,243.822l-23.454-6.915Zm-90.22,50.173,22.936,6.761-46.7,6.454Zm-.672-.2-24.112,13.408.926-20.242Zm-23.655-7.494-8.731-2.574L1167.987,170.9l-.014-.042,32.356-33.5Zm-28.362-59.178-4.856-16.831,36.652-16.091Zm32.024-33.568-37.021,16.252-7.15-24.786Zm-100.167-19.864,15.376-19.6,34.206,10.494,5.71,19.793Zm49.547-9.643L1115.312,96.92l36-45.9Zm1.5-56.254L1114.8,96.761,1083.6,87.188Zm-68.524,36.328-38.218,18.743-26.029-28.8ZM954.3,7.722l62.263,68.886-71.5-11.19Zm-9.7,57.436L916.559,42.305,953.779,7.84Zm-28.432-23.17-21.84-17.8L953.211,7.685ZM952.71,7.307,893.854,23.8,865.411.624Zm-87.9-6.53,28.458,23.192-34.159,9.573Zm-.523.093-5.711,32.823L792.12,52.319Zm-5.806,33.368-12.619,72.53-54.566-53.7ZM791.1,53.584l54.548,53.679L797.5,147.049Zm5.961,94.469,2.523,36.924L764.1,175.288ZM763.63,175.676l35.4,9.665-82.521,29.265Zm-48.231,39.2-14.917-56.44,62.559,17.079Zm-.515,0-84.836-37.751,69.9-18.741ZM646.114,81.2l53.544,76.639-106.17,2.825Zm-54.429,79.773-33.656,7.752-3.817-13.41ZM543.538,153.2l4.5-17.765,5.486,19.272Zm-59-8.721-30.609,7.295-8.357-46.638ZM443.966,104.3l-30.823,4.047-16.4-17.6ZM395.537,90.213,353.892,116l-22.23-86.645ZM331.316,30.02l22.132,86.25-32.084,18.32ZM321.3,135.2,353.168,117l-37.655,79.042Zm-6.387,61.819-50.459-29.358L320.773,135.5Zm-.364.366-86.679,33.3L264.05,168Zm-51.1-29.561-73.076,77.07-18.98-93.4Zm-74.132,78.563-18.318,29.281-12.183-6.785Zm-39.544,28.547L140.4,259.194l17.505,9.75ZM103.4,339.009,85.88,337.475l16.25-26.418Zm-17.992-1.725L46.525,310.216l55.373.268Z" transform="translate(1.591 3.182)" fill="#a0d4dd"/>
      <g id="Grupo_422" data-name="Grupo 422" transform="translate(0 0)">
        <path id="Trazado_828" data-name="Trazado 828" d="M0,4.5a4.5,4.5,0,1,1,4.5,4.5A4.5,4.5,0,0,1,0,4.5Z" transform="translate(1457.506 149.889)" fill="#a0d4dd"/>
        <ellipse id="Elipse_20" data-name="Elipse 20" cx="4.496" cy="4.496" rx="4.496" ry="4.496" transform="translate(1472.889 39.992)" fill="#a0d4dd"/>
        <path id="Trazado_829" data-name="Trazado 829" d="M0,4.5A4.5,4.5,0,1,1,4.494,8.991,4.495,4.495,0,0,1,0,4.5Z" transform="translate(1344.512 232.296)" fill="#a0d4dd"/>
        <path id="Trazado_830" data-name="Trazado 830" d="M0,3.5a3.5,3.5,0,1,1,3.5,3.5A3.5,3.5,0,0,1,0,3.5Z" transform="translate(1495.919 200.576)" fill="#a0d4dd"/>
        <path id="Trazado_831" data-name="Trazado 831" d="M0,3.5a3.5,3.5,0,1,1,3.5,3.5A3.5,3.5,0,0,1,0,3.5Z" transform="translate(1423.739 285.995)" fill="#a0d4dd"/>
        <path id="Trazado_832" data-name="Trazado 832" d="M0,3.5A3.5,3.5,0,1,1,3.5,7,3.5,3.5,0,0,1,0,3.5Z" transform="translate(1576.678 102.668)" fill="#a0d4dd"/>
        <path id="Trazado_833" data-name="Trazado 833" d="M0,3.5a3.5,3.5,0,1,1,3.5,3.5A3.5,3.5,0,0,1,0,3.5Z" transform="translate(1519.898 118.322)" fill="#a0d4dd"/>
        <path id="Trazado_834" data-name="Trazado 834" d="M0,3.5A3.5,3.5,0,1,1,3.5,7,3.5,3.5,0,0,1,0,3.5Z" transform="translate(1242.658 243.784)" fill="#a0d4dd"/>
        <path id="Trazado_835" data-name="Trazado 835" d="M0,3.5a3.5,3.5,0,1,1,3.5,3.5A3.5,3.5,0,0,1,0,3.5Z" transform="translate(1227.672 333.202)" fill="#a0d4dd"/>
        <path id="Trazado_836" data-name="Trazado 836" d="M0,3.5a3.5,3.5,0,1,1,3.5,3.5A3.5,3.5,0,0,1,0,3.5Z" transform="translate(1086.306 313.719)" fill="#a0d4dd"/>
        <path id="Trazado_837" data-name="Trazado 837" d="M0,3.5a3.5,3.5,0,1,1,3.5,3.5A3.5,3.5,0,0,1,0,3.5Z" transform="translate(1602.687 191.635)" fill="#a0d4dd"/>
        <path id="Trazado_838" data-name="Trazado 838" d="M0,2.5A2.5,2.5,0,1,1,2.5,5,2.5,2.5,0,0,1,0,2.5Z" transform="translate(1552.035 169.439)" fill="#a0d4dd"/>
        <path id="Trazado_839" data-name="Trazado 839" d="M0,2.5a2.5,2.5,0,1,1,2.5,2.5A2.5,2.5,0,0,1,0,2.5Z" transform="translate(1654.718 188.097)" fill="#a0d4dd"/>
        <path id="Trazado_840" data-name="Trazado 840" d="M0,2.5A2.5,2.5,0,1,1,2.5,5,2.5,2.5,0,0,1,0,2.5Z" transform="translate(1578.676 151.131)" fill="#a0d4dd"/>
        <path id="Trazado_841" data-name="Trazado 841" d="M0,2.5a2.5,2.5,0,1,1,2.5,2.5A2.5,2.5,0,0,1,0,2.5Z" transform="translate(1481.881 77.194)" fill="#a0d4dd"/>
        <path id="Trazado_842" data-name="Trazado 842" d="M0,2.5a2.5,2.5,0,1,1,2.5,2.5A2.5,2.5,0,0,1,0,2.5Z" transform="translate(1538.494 15.918)" fill="#a0d4dd"/>
        <path id="Trazado_843" data-name="Trazado 843" d="M0,2.5a2.5,2.5,0,1,1,2.5,2.5A2.5,2.5,0,0,1,0,2.5Z" transform="translate(1445.416 193.092)" fill="#a0d4dd"/>
        <path id="Trazado_844" data-name="Trazado 844" d="M0,2.5A2.5,2.5,0,1,1,2.5,5,2.5,2.5,0,0,1,0,2.5Z" transform="translate(1311.791 186.341)" fill="#a0d4dd"/>
        <path id="Trazado_845" data-name="Trazado 845" d="M0,2.5A2.5,2.5,0,1,1,2.5,5,2.5,2.5,0,0,1,0,2.5Z" transform="translate(1357.914 137.4)" fill="#a0d4dd"/>
        <path id="Trazado_846" data-name="Trazado 846" d="M1.318,1.316a4.5,4.5,0,1,1,0,6.357A4.5,4.5,0,0,1,1.318,1.316Z" transform="translate(1080.046 85.939)" fill="#a0d4dd"/>
        <path id="Trazado_847" data-name="Trazado 847" d="M1.317,1.316a4.5,4.5,0,1,1,0,6.359A4.5,4.5,0,0,1,1.317,1.316Z" transform="translate(941.874 64.311)" fill="#a0d4dd"/>
        <path id="Trazado_848" data-name="Trazado 848" d="M1.025,1.024a3.5,3.5,0,1,1,0,4.946A3.5,3.5,0,0,1,1.025,1.024Z" transform="translate(1072.366 148.529)" fill="#a0d4dd"/>
        <path id="Trazado_849" data-name="Trazado 849" d="M1.025,1.024a3.5,3.5,0,1,1,0,4.946A3.5,3.5,0,0,1,1.025,1.024Z" transform="translate(1216.606 390.423)" fill="#a0d4dd"/>
        <path id="Trazado_850" data-name="Trazado 850" d="M1.024,1.025a3.5,3.5,0,1,1,0,4.944A3.5,3.5,0,0,1,1.024,1.025Z" transform="translate(960.924 157.89)" fill="#a0d4dd"/>
        <path id="Trazado_851" data-name="Trazado 851" d="M1.025,1.025a3.5,3.5,0,1,1,0,4.947A3.494,3.494,0,0,1,1.025,1.025Z" transform="translate(1198.702 136.402)" fill="#a0d4dd"/>
        <path id="Trazado_852" data-name="Trazado 852" d="M1.025,1.025a3.5,3.5,0,1,1,0,4.944A3.494,3.494,0,0,1,1.025,1.025Z" transform="translate(1147.484 107.32)" fill="#a0d4dd"/>
        <path id="Trazado_853" data-name="Trazado 853" d="M1.023,1.025a3.5,3.5,0,1,1,0,4.944A3.5,3.5,0,0,1,1.023,1.025Z" transform="translate(862.729 0)" fill="#a0d4dd"/>
        <path id="Trazado_854" data-name="Trazado 854" d="M1.025,1.024a3.5,3.5,0,1,1,0,4.944A3.5,3.5,0,0,1,1.025,1.024Z" transform="translate(788.905 52.629)" fill="#a0d4dd"/>
        <path id="Trazado_855" data-name="Trazado 855" d="M1.025,1.024a3.5,3.5,0,1,1,0,4.946A3.5,3.5,0,0,1,1.025,1.024Z" transform="translate(1154.185 217.7)" fill="#a0d4dd"/>
        <path id="Trazado_856" data-name="Trazado 856" d="M.732.732a2.5,2.5,0,1,1,0,3.532A2.5,2.5,0,0,1,.732.732Z" transform="translate(1135.061 165.777)" fill="#a0d4dd"/>
        <path id="Trazado_857" data-name="Trazado 857" d="M.732.732a2.5,2.5,0,1,1,0,3.53A2.5,2.5,0,0,1,.732.732Z" transform="translate(1194.477 251.578)" fill="#a0d4dd"/>
        <path id="Trazado_858" data-name="Trazado 858" d="M.73.732a2.5,2.5,0,1,1,0,3.534A2.5,2.5,0,0,1,.73.732Z" transform="translate(1132.563 276.449)" fill="#a0d4dd"/>
        <path id="Trazado_859" data-name="Trazado 859" d="M.732.732a2.5,2.5,0,1,1,0,3.532A2.5,2.5,0,0,1,.732.732Z" transform="translate(1134.878 382.187)" fill="#a0d4dd"/>
        <path id="Trazado_860" data-name="Trazado 860" d="M.73.732a2.5,2.5,0,1,1,0,3.532A2.5,2.5,0,0,1,.73.732Z" transform="translate(1166.845 171.669)" fill="#a0d4dd"/>
        <path id="Trazado_861" data-name="Trazado 861" d="M.731.732a2.5,2.5,0,1,1,0,3.531A2.5,2.5,0,0,1,.731.732Z" transform="translate(1150.683 50.944)" fill="#a0d4dd"/>
        <path id="Trazado_862" data-name="Trazado 862" d="M.732.732a2.5,2.5,0,1,1,0,3.532A2.5,2.5,0,0,1,.732.732Z" transform="translate(1042.945 107.111)" fill="#a0d4dd"/>
        <path id="Trazado_863" data-name="Trazado 863" d="M.732.73a2.5,2.5,0,1,1,0,3.534A2.5,2.5,0,0,1,.732.73Z" transform="translate(953.231 7.851)" fill="#a0d4dd"/>
        <path id="Trazado_864" data-name="Trazado 864" d="M8.607,2.675A4.5,4.5,0,1,1,2.675.387,4.5,4.5,0,0,1,8.607,2.675Z" transform="translate(191.143 287.473)" fill="#a0d4dd"/>
        <path id="Trazado_865" data-name="Trazado 865" d="M8.607,2.675A4.5,4.5,0,1,1,2.675.387,4.5,4.5,0,0,1,8.607,2.675Z" transform="translate(261.052 166.345)" fill="#a0d4dd"/>
        <path id="Trazado_866" data-name="Trazado 866" d="M6.694,2.08A3.5,3.5,0,1,1,2.08.3,3.5,3.5,0,0,1,6.694,2.08Z" transform="translate(137.802 258.207)" fill="#a0d4dd"/>
        <path id="Trazado_867" data-name="Trazado 867" d="M6.695,2.08A3.5,3.5,0,1,1,2.081.3,3.5,3.5,0,0,1,6.695,2.08Z" transform="translate(169.177 150.866)" fill="#a0d4dd"/>
        <path id="Trazado_868" data-name="Trazado 868" d="M6.694,2.082A3.5,3.5,0,1,1,2.08.3,3.5,3.5,0,0,1,6.694,2.082Z" transform="translate(103.647 380.44)" fill="#a0d4dd"/>
        <path id="Trazado_869" data-name="Trazado 869" d="M6.7,2.081A3.5,3.5,0,1,1,2.081.3,3.5,3.5,0,0,1,6.7,2.081Z" transform="translate(149.213 343.122)" fill="#a0d4dd"/>
        <path id="Trazado_870" data-name="Trazado 870" d="M6.694,2.081A3.5,3.5,0,1,1,2.08.3,3.494,3.494,0,0,1,6.694,2.081Z" transform="translate(351.829 116.077)" fill="#a0d4dd"/>
        <path id="Trazado_871" data-name="Trazado 871" d="M6.694,2.082A3.5,3.5,0,1,1,2.082.3,3.495,3.495,0,0,1,6.694,2.082Z" transform="translate(329.295 28.258)" fill="#a0d4dd"/>
        <path id="Trazado_872" data-name="Trazado 872" d="M6.694,2.079A3.5,3.5,0,1,1,2.082.3,3.5,3.5,0,0,1,6.694,2.079Z" transform="translate(43.817 309.647)" fill="#a0d4dd"/>
        <path id="Trazado_873" data-name="Trazado 873" d="M4.781,1.487A2.5,2.5,0,1,1,1.487.215,2.5,2.5,0,0,1,4.781,1.487Z" transform="translate(101.437 310.919)" fill="#a0d4dd"/>
        <path id="Trazado_874" data-name="Trazado 874" d="M4.782,1.487A2.5,2.5,0,1,1,1.486.215,2.5,2.5,0,0,1,4.782,1.487Z" transform="translate(0 335.474)" fill="#a0d4dd"/>
        <path id="Trazado_875" data-name="Trazado 875" d="M4.781,1.486A2.5,2.5,0,1,1,1.487.214,2.5,2.5,0,0,1,4.781,1.486Z" transform="translate(84.499 338.453)" fill="#a0d4dd"/>
        <path id="Trazado_876" data-name="Trazado 876" d="M4.781,1.486A2.5,2.5,0,1,1,1.485.214,2.5,2.5,0,0,1,4.781,1.486Z" transform="translate(202.952 366.825)" fill="#a0d4dd"/>
        <path id="Trazado_877" data-name="Trazado 877" d="M4.782,1.486A2.5,2.5,0,1,1,1.488.214,2.5,2.5,0,0,1,4.782,1.486Z" transform="translate(189.324 246.093)" fill="#a0d4dd"/>
        <path id="Trazado_878" data-name="Trazado 878" d="M4.781,1.485a2.5,2.5,0,1,1-3.3-1.27A2.5,2.5,0,0,1,4.781,1.485Z" transform="translate(314.222 198.116)" fill="#a0d4dd"/>
        <path id="Trazado_879" data-name="Trazado 879" d="M8.692,6.114A4.5,4.5,0,1,1,6.114.3,4.494,4.494,0,0,1,8.692,6.114Z" transform="translate(562.138 192.982)" fill="#a0d4dd"/>
        <path id="Trazado_880" data-name="Trazado 880" d="M8.693,6.116A4.5,4.5,0,1,1,6.115.3,4.5,4.5,0,0,1,8.693,6.116Z" transform="translate(697.22 156.764)" fill="#a0d4dd"/>
        <path id="Trazado_881" data-name="Trazado 881" d="M6.762,4.758a3.5,3.5,0,1,1-2-4.524A3.5,3.5,0,0,1,6.762,4.758Z" transform="translate(546.112 134.156)" fill="#a0d4dd"/>
        <path id="Trazado_882" data-name="Trazado 882" d="M6.761,4.756a3.5,3.5,0,1,1-2-4.522A3.5,3.5,0,0,1,6.761,4.756Z" transform="translate(644.201 80.44)" fill="#a0d4dd"/>
        <path id="Trazado_883" data-name="Trazado 883" d="M6.759,4.756a3.5,3.5,0,1,1-2-4.52A3.5,3.5,0,0,1,6.759,4.756Z" transform="translate(435.529 196.438)" fill="#a0d4dd"/>
        <path id="Trazado_884" data-name="Trazado 884" d="M6.76,4.755a3.5,3.5,0,1,1-2-4.52A3.5,3.5,0,0,1,6.76,4.755Z" transform="translate(494.138 202.27)" fill="#a0d4dd"/>
        <path id="Trazado_885" data-name="Trazado 885" d="M6.76,4.756a3.5,3.5,0,1,1-2-4.52A3.5,3.5,0,0,1,6.76,4.756Z" transform="translate(797.955 184.995)" fill="#a0d4dd"/>
        <path id="Trazado_886" data-name="Trazado 886" d="M6.759,4.757a3.5,3.5,0,1,1-2-4.521A3.495,3.495,0,0,1,6.759,4.757Z" transform="translate(844.119 106.964)" fill="#a0d4dd"/>
        <path id="Trazado_887" data-name="Trazado 887" d="M6.76,4.757a3.5,3.5,0,1,1-2-4.522A3.495,3.495,0,0,1,6.76,4.757Z" transform="translate(443.282 104.073)" fill="#a0d4dd"/>
        <path id="Trazado_888" data-name="Trazado 888" d="M4.829,3.4A2.5,2.5,0,1,1,3.4.168,2.5,2.5,0,0,1,4.829,3.4Z" transform="translate(484.125 145.301)" fill="#a0d4dd"/>
        <path id="Trazado_889" data-name="Trazado 889" d="M4.829,3.4A2.5,2.5,0,1,1,3.4.167,2.5,2.5,0,0,1,4.829,3.4Z" transform="translate(395.036 90.938)" fill="#a0d4dd"/>
        <path id="Trazado_890" data-name="Trazado 890" d="M4.829,3.4A2.5,2.5,0,1,1,3.4.168,2.5,2.5,0,0,1,4.829,3.4Z" transform="translate(452.679 152.793)" fill="#a0d4dd"/>
        <path id="Trazado_891" data-name="Trazado 891" d="M4.829,3.4A2.5,2.5,0,1,1,3.4.167,2.5,2.5,0,0,1,4.829,3.4Z" transform="translate(516.375 256.614)" fill="#a0d4dd"/>
        <path id="Trazado_892" data-name="Trazado 892" d="M4.829,3.4A2.5,2.5,0,1,1,3.4.168,2.5,2.5,0,0,1,4.829,3.4Z" transform="translate(592.111 161.607)" fill="#a0d4dd"/>
        <path id="Trazado_893" data-name="Trazado 893" d="M4.829,3.4A2.5,2.5,0,1,1,3.4.168,2.5,2.5,0,0,1,4.829,3.4Z" transform="translate(714.35 215.999)" fill="#a0d4dd"/>
      </g>
    </g>
    <g id="Grupo_425" data-name="Grupo 425" transform="translate(639.798 232.661)">
      <path id="Trazado_894" data-name="Trazado 894" d="M1920.556,64.793l-.054,0L1896.22,12.479l-.044-.92L1865.806,60.1l-25.512-2.236L1775.96,30.175l-.7-1.171,12.163,95.9L1746.88,195.16l-107.12,41.148-.161-.094-.088.189-.064.024-.008.1-77.585,102.9-30.04,3.942-41.23-105.83.531-.582-.7.161-.2-.507-.221.6-54.687,12.593-16.461-19.62-25.906-65.073.334-1.322-59.215,76.416-78.346,21-104.838-46.65-.048-.179-.2.07-.062-.028-.1.086-103.279,36.628-.133-.036-.062.1-.115.04.01.137L990.53,346.653,905,425.851l-33.879-27.609,1.435.225-2.236-.922L848.289,284.537l-.086-.439-99.254,63.431-40.5-25.794,3.614-25.653.038-.268-75.446-19.872,2.312-102.436,56-79.219.29-.411-90.21-12.432,31.75-69.582.809-.414L535.08,0l9.641,58.289-22.4,11.458.189-1.123-.811,1.443-.169.086.052.123-63.917,113.7L378.968,192l1.175-.857-2.234.93-95.487-64.328-.372-.25L256.717,242.531l-46.871,10.4-15.585-20.7-.163-.215-66.852,38.977.044-.109-.676.465L63.63,243.069l-.072-.032L0,248.685l93.943,45.67.05.024,1,57.665-.332.855,47.435-32.073,22.272,12.3-21.647,127.2.652-.7L221.3,427.677l-8.569-43.126.087-.093-.075-.078,27.275-91.04,65.533-47.795,65.379,3.3-7.4,62.893,56.917-60.392.049,0,.05-.091,112.626-62.63,29.062,8.567-5.19,113.461-.724.316.7.137-.024.543.447-.463,55.1,10.647,7.1,24.609-2.683,69.987-.841,1.075,85.1-45.867,80.135,12.545,76.943,85.132-.028.181.208.018.046.05.129-.038L967.9,477.9l.106.087.1-.07.165.012.026-.151,89.931-64.111.391.384-.044-.634,1.284-.916-1.32.372-7.872-115.117,40.963-33.843,76.312,20.836-1.4.376,2.415-.062,65.94,94.382.258.366,65.036-98.206,47.473,7.168,7.092,24.918.074.261,77.11-12.42,48.525,49,.034.193.225-.03,59.991,17.219.145.37.123-.165,78.827,75.1.412,1.608,12.539-131.733,68.693-39.226-.726,1.258,1.662-1.753,113.366,20.113.443.079-23.458-115.431,38.641-28.5,22.87,12.738L1900,99.061l69.055.332h.081l55.814-30.919Zm.676.636,101.494,3.578-53.655,29.722Zm-1.383-.6-21.333-1.867-2.224-48.879Zm-24.192-51.29,2.246,49.368-31.413-2.749Zm-53.311,128,56.1-41.382-44.255,61.251Zm-.314-.527-12.748-21.385,36.842-58.889,31.8,2.785,1.6,35.079Zm-49.4,36.059-4.538-51.556,27.279,15.193Zm-4.429-52.2,24.731-31.485,15.634,26.229-12.871,20.57Zm40.718-4.667,12.619,21.168-10.2,7.522-15.1-8.412Zm.012-1.171-15.6-26.163,27.017-34.393,25.09,2.2Zm10.8-60.75L1813,92.318l-36.51-61.247ZM1812.6,92.833l-24.649,31.376-11.716-92.38Zm-25.078,33.131,4.56,51.834-44.3,17.014Zm3.735,52.8-87.418,92.187,43.46-75.3Zm-153.1,60.473-45.823,96.185-29.638,3.892ZM1562.184,340l28.99-3.805-49,30.348Zm-.849.113-20.3,26.925-8.991-23.081Zm-21.252,26.172-19.415-20.836,10.748-1.413ZM1520.157,344.9l-49.449-53.061-.038-.042,19.566-53.457,40.953,105.114Zm-49.421-52.137L1519.412,345,1481,350.04Zm-109.451-2.55,6.108-24.136,67.69-15.589,20.52,24.46-23.673,25.933Zm68.779,11-74.6,12.018,5.675-22.425Zm-95.96-60.1,8.544,30.034-41.792,9.631Zm.525-.375,39.753-4.775-7.492,29.6-23.647,5.446Zm32.094,25.49-6.045,23.89-12.535-1.893-4.731-16.628ZM1456,275.417l13.819,16.471-36.88,8.788Zm14.179,15.949-13.762-16.4,32.992-36.139Zm19.163-53.375-33.322,36.5-20.27-24.16Zm-121.78,27.418,7.472-29.525,43.424-5.216,16.185,19.292Zm50.592-35.318-42.959,5.16,17.491-69.126Zm-26.186-63.612-17.423,68.85-39.617,4.757Zm-58.583,74.543L1299.958,280.9l-43.354-19.29ZM1298.688,281l-127,3.374,83.979-22.516Zm-251.724-28.537,3.077,45.018L991.923,345.5Zm-56.649,95.219L974.9,436.315l-42.452,11.9-26.963-21.973ZM869.648,397.267,749.6,347.835,847.774,285.1ZM547.969,74.194l56.188,7.743-40.3,88.319Zm15.012,94.523L522.4,70.671l24.931,3.437Zm48.831,43.792,24.058,63.268-37.82-7.011Zm-.121-1.473-47.386-39.651,74.78-30.04-.72,31.962Zm-38.433-11.219-10.4-3.067,1.091-23.852Zm-8.893-27.585,46.06,38.542-36.449-10.746Zm47.018,39.462-13.829,56.522-23.333-67.479Zm23.932,64.6L604,290.045l-5.958-20.661Zm1.006.227L696.584,314.9l-15.364,19.59-68.2-13.179-8.848-30.676Zm1.842.449,73.073,19.246-14.275,18.2Zm58.937,38.26,10.692,6.808-2.413,17.121-23.486-4.538Zm8.194,24.534L700.9,370.932l-38.277-11.744,18.844-24.027Zm.6.115L748,348.012,701.538,370.8Zm161.658,57.186-85.9-13.448-31.575-34.934ZM747.431,347.285l-41.45-8.009,2.379-16.878Zm-49.952-32.538L711.3,297.122l-3.419,24.253Zm-61.4-40.14-23.985-63.081L638.341,174.4Zm58.11-180.264-55.192,78.07.712-31.517.008-.463-75.4,30.292,40.478-88.7ZM604.421,81.358l-56.554-7.793L545.4,58.629l90.535-46.32ZM535.814.7l99.715,11.132L545.291,58Zm9.01,58.225,2.409,14.555-24.309-3.351ZM522.044,71.4l41.241,99.648-59.314,8.192Zm-.715.572L503.34,179.318,458.406,183.9ZM458.04,184.55,502.663,180l-81.236,69.681Zm-37.758,65.924-41.848-57.8,78.863-8.043ZM282.452,128.505l94.783,63.851-119.84,49.932Zm-82.194,153,20.1-13.591,18.934,25.142-35.371,18.763ZM211.98,383.561,165.2,333.048l38.224-20.276Zm-85.111-111.6,69.749-15.473,2.988,24.715-57.544,38.906-27.947-15.435Zm-13.293,32.417L94.754,293.984,126,272.511Zm82.97-48.5-68.059,15.1,65.282-38.061Zm.672.477,12.376-2.747,10.4,13.813-19.815,13.4Zm42.432,36.156-18.783-24.945,35.526-24.025Zm135.961-98.817-70.246,51.232-47.028-2.376ZM255.475,243.431,220.5,267.08l-10.251-13.615Zm-58.332,12.315-2.688-22.238,14.732,19.566ZM94.324,293.54l-30.05-49.511,61.75,27.726ZM63.342,243.668,93.585,293.5,2.246,249.1ZM94.608,294.6l18.743,10.352L95.578,350.543Zm1.33,56.7,17.954-46.046,27.6,15.246Zm46.724-30.853,57.027-38.556,3.654,30.235-38.636,20.5Zm22.24,13.183,47.078,50.833L143.666,458.4ZM144.354,458.557l67.819-73.406.1.8.066-.227L220.6,427.3Zm68.172-75.587L204,312.466l35.248-18.7Zm27.827-90.631,16.835-49.233L304.58,245.5Zm65.98-47.364,71.158-51.9L371,248.241Zm58.013,65.008,7.192-61.1,48.1,2.429Zm7.262-61.71,6.48-55.039,41.6,57.468Zm51.2,1.032,80.867-69.367,28.671,8.452Zm110.286-61.329-28.038-8.267,57.09-7.888Zm.821.241,29.474-16.39-1.133,24.746Zm28.917,9.162,10.673,3.145,23.7,68.548.018.052-39.552,40.945Zm34.67,72.337,5.934,20.574-44.806,19.67Zm-39.15,41.033,45.255-19.866,8.738,30.3ZM680.8,335.03,662,359l-41.812-12.827-6.979-24.2ZM620.23,346.82,661.6,359.51l-44,56.108Zm-1.836,68.763,43.826-55.88,38.146,11.7Zm83.763-44.408,46.719-22.91,31.819,35.2Zm156.253,97.371L782.3,384.34l87.4,13.68Zm11.865-70.21,34.276,27.933-45.5,42.13Zm34.753,28.323,26.7,21.755-71.977,20.174Zm-44.67,42.394,71.947-20.168,34.769,28.336Zm107.452,7.981-34.787-28.35,41.756-11.7Zm.64-.115,6.981-40.122,81.232-22.768Zm7.1-40.788,15.423-88.659,66.7,65.64Zm82.357-23.649-66.678-65.618,58.867-48.634ZM1050.62,297l-3.085-45.134,43.38,11.844Zm40.87-33.765-43.271-11.815,100.874-35.775Zm58.957-47.915,18.236,68.993-76.473-20.88Zm.63,0,103.7,46.145-85.449,22.91Zm84.063,163.4-65.453-93.686,129.781-3.451Zm66.534-97.514,41.142-9.476,4.665,16.392Zm58.854,9.5-5.5,21.715-6.705-23.558Zm72.116,10.661,37.417-8.917,10.214,57.007Zm49.6,49.115,37.679-4.944,20.049,21.514Zm59.2,17.218,50.906-31.523L1619.525,442.1Zm78.505,73.579-27.054-105.43,39.22-22.4Zm12.237-128.569-38.948,22.24,46.03-96.622Zm7.806-75.569,61.682,35.886-68.84,39.311Zm.447-.448L1746.393,196l-44.219,76.619Zm62.458,36.135,89.327-94.207,23.2,114.173Zm90.619-96.034,22.391-35.791L1830.8,149.3Zm48.338-34.894,11.468,19.24-21.4-11.917Zm56.691-78.326,21.421,1.875L1900.1,97.749Zm21.995,2.109,47.533,33.087-67.687-.326Z" transform="translate(1.93 3.926)" fill="#a0d4dd"/>
      <g id="Grupo_424" data-name="Grupo 424" transform="translate(0 0)">
        <path id="Trazado_895" data-name="Trazado 895" d="M10.989,5.5A5.495,5.495,0,1,1,5.5,0,5.493,5.493,0,0,1,10.989,5.5Z" transform="translate(236.187 291.586)" fill="#a0d4dd"/>
        <path id="Trazado_896" data-name="Trazado 896" d="M10.991,5.5A5.5,5.5,0,1,1,5.5,0,5.5,5.5,0,0,1,10.991,5.5Z" transform="translate(217.382 425.921)" fill="#a0d4dd"/>
        <path id="Trazado_897" data-name="Trazado 897" d="M10.991,5.494A5.5,5.5,0,1,1,5.5,0,5.5,5.5,0,0,1,10.991,5.494Z" transform="translate(374.311 190.851)" fill="#a0d4dd"/>
        <path id="Trazado_898" data-name="Trazado 898" d="M8.548,4.276A4.274,4.274,0,1,1,4.274,0,4.273,4.273,0,0,1,8.548,4.276Z" transform="translate(191.672 232.067)" fill="#a0d4dd"/>
        <path id="Trazado_899" data-name="Trazado 899" d="M8.548,4.274A4.274,4.274,0,1,1,4.274,0,4.273,4.273,0,0,1,8.548,4.274Z" transform="translate(279.907 127.652)" fill="#a0d4dd"/>
        <path id="Trazado_900" data-name="Trazado 900" d="M8.548,4.274A4.274,4.274,0,1,1,4.274,0,4.275,4.275,0,0,1,8.548,4.274Z" transform="translate(92.953 351.748)" fill="#a0d4dd"/>
        <path id="Trazado_901" data-name="Trazado 901" d="M8.548,4.272A4.274,4.274,0,1,1,4.274,0,4.273,4.273,0,0,1,8.548,4.272Z" transform="translate(162.361 332.617)" fill="#a0d4dd"/>
        <path id="Trazado_902" data-name="Trazado 902" d="M8.548,4.274A4.274,4.274,0,1,1,4.274,0,4.274,4.274,0,0,1,8.548,4.274Z" transform="translate(501.257 179.25)" fill="#a0d4dd"/>
        <path id="Trazado_903" data-name="Trazado 903" d="M8.548,4.274A4.274,4.274,0,1,1,4.274,0,4.273,4.273,0,0,1,8.548,4.274Z" transform="translate(519.575 69.948)" fill="#a0d4dd"/>
        <path id="Trazado_904" data-name="Trazado 904" d="M8.548,4.274A4.274,4.274,0,1,1,4.274,0,4.273,4.273,0,0,1,8.548,4.274Z" transform="translate(692.382 93.762)" fill="#a0d4dd"/>
        <path id="Trazado_905" data-name="Trazado 905" d="M8.55,4.274A4.275,4.275,0,1,1,4.276,0,4.273,4.273,0,0,1,8.55,4.274Z" transform="translate(61.159 243)" fill="#a0d4dd"/>
        <path id="Trazado_906" data-name="Trazado 906" d="M6.105,3.052A3.053,3.053,0,1,1,3.053,0,3.052,3.052,0,0,1,6.105,3.052Z" transform="translate(125.521 272.571)" fill="#a0d4dd"/>
        <path id="Trazado_907" data-name="Trazado 907" d="M6.105,3.053A3.053,3.053,0,1,1,3.053,0,3.054,3.054,0,0,1,6.105,3.053Z" transform="translate(0 249.766)" fill="#a0d4dd"/>
        <path id="Trazado_908" data-name="Trazado 908" d="M6.108,3.055A3.054,3.054,0,1,1,3.053,0,3.054,3.054,0,0,1,6.108,3.055Z" transform="translate(92.953 294.95)" fill="#a0d4dd"/>
        <path id="Trazado_909" data-name="Trazado 909" d="M6.107,3.053A3.054,3.054,0,1,1,3.053,0,3.056,3.056,0,0,1,6.107,3.053Z" transform="translate(211.274 385.332)" fill="#a0d4dd"/>
        <path id="Trazado_910" data-name="Trazado 910" d="M6.107,3.053A3.054,3.054,0,1,1,3.053,0,3.054,3.054,0,0,1,6.107,3.053Z" transform="translate(142.07 460.235)" fill="#a0d4dd"/>
        <path id="Trazado_911" data-name="Trazado 911" d="M6.107,3.053A3.054,3.054,0,1,1,3.053,0,3.054,3.054,0,0,1,6.107,3.053Z" transform="translate(255.849 243.66)" fill="#a0d4dd"/>
        <path id="Trazado_912" data-name="Trazado 912" d="M6.105,3.053A3.053,3.053,0,1,1,3.052,0,3.053,3.053,0,0,1,6.105,3.053Z" transform="translate(419.192 251.911)" fill="#a0d4dd"/>
        <path id="Trazado_913" data-name="Trazado 913" d="M6.107,3.053A3.054,3.054,0,1,1,3.055,0,3.055,3.055,0,0,1,6.107,3.053Z" transform="translate(362.811 311.735)" fill="#a0d4dd"/>
        <path id="Trazado_914" data-name="Trazado 914" d="M9.382,9.38a5.5,5.5,0,1,1,0-7.772A5.494,5.494,0,0,1,9.382,9.38Z" transform="translate(697.589 369.758)" fill="#a0d4dd"/>
        <path id="Trazado_915" data-name="Trazado 915" d="M9.381,9.381a5.5,5.5,0,1,1,0-7.772A5.5,5.5,0,0,1,9.381,9.381Z" transform="translate(866.491 396.196)" fill="#a0d4dd"/>
        <path id="Trazado_916" data-name="Trazado 916" d="M7.3,7.3a4.274,4.274,0,1,1,0-6.045A4.274,4.274,0,0,1,7.3,7.3Z" transform="translate(709.421 295.69)" fill="#a0d4dd"/>
        <path id="Trazado_917" data-name="Trazado 917" d="M7.3,7.3a4.274,4.274,0,1,1,0-6.045A4.273,4.273,0,0,1,7.3,7.3Z" transform="translate(533.103 0)" fill="#a0d4dd"/>
        <path id="Trazado_918" data-name="Trazado 918" d="M7.3,7.3a4.275,4.275,0,1,1,0-6.045A4.277,4.277,0,0,1,7.3,7.3Z" transform="translate(845.645 284.247)" fill="#a0d4dd"/>
        <path id="Trazado_919" data-name="Trazado 919" d="M7.3,7.3a4.274,4.274,0,1,1,0-6.045A4.275,4.275,0,0,1,7.3,7.3Z" transform="translate(554.988 310.514)" fill="#a0d4dd"/>
        <path id="Trazado_920" data-name="Trazado 920" d="M7.3,7.3a4.274,4.274,0,1,1,0-6.043A4.272,4.272,0,0,1,7.3,7.3Z" transform="translate(617.596 346.063)" fill="#a0d4dd"/>
        <path id="Trazado_921" data-name="Trazado 921" d="M7.3,7.3a4.274,4.274,0,1,1,0-6.043A4.269,4.269,0,0,1,7.3,7.3Z" transform="translate(965.679 477.25)" fill="#a0d4dd"/>
        <path id="Trazado_922" data-name="Trazado 922" d="M7.3,7.3a4.275,4.275,0,1,1,0-6.045A4.275,4.275,0,0,1,7.3,7.3Z" transform="translate(1055.92 412.916)" fill="#a0d4dd"/>
        <path id="Trazado_923" data-name="Trazado 923" d="M7.3,7.3a4.275,4.275,0,1,1,0-6.045A4.275,4.275,0,0,1,7.3,7.3Z" transform="translate(609.404 211.135)" fill="#a0d4dd"/>
        <path id="Trazado_924" data-name="Trazado 924" d="M5.213,5.212a3.054,3.054,0,1,1,0-4.319A3.054,3.054,0,0,1,5.213,5.212Z" transform="translate(635.224 277.049)" fill="#a0d4dd"/>
        <path id="Trazado_925" data-name="Trazado 925" d="M5.212,5.211A3.053,3.053,0,1,1,5.212.9,3.056,3.056,0,0,1,5.212,5.211Z" transform="translate(562.595 172.167)" fill="#a0d4dd"/>
        <path id="Trazado_926" data-name="Trazado 926" d="M5.212,5.211a3.053,3.053,0,1,1,0-4.316A3.052,3.052,0,0,1,5.212,5.211Z" transform="translate(638.278 141.763)" fill="#a0d4dd"/>
        <path id="Trazado_927" data-name="Trazado 927" d="M5.211,5.213a3.053,3.053,0,1,1,0-4.318A3.053,3.053,0,0,1,5.211,5.213Z" transform="translate(635.449 12.511)" fill="#a0d4dd"/>
        <path id="Trazado_928" data-name="Trazado 928" d="M5.211,5.213A3.053,3.053,0,1,1,5.211.9,3.053,3.053,0,0,1,5.211,5.213Z" transform="translate(596.372 269.845)" fill="#a0d4dd"/>
        <path id="Trazado_929" data-name="Trazado 929" d="M5.212,5.211a3.053,3.053,0,1,1,0-4.317A3.052,3.052,0,0,1,5.212,5.211Z" transform="translate(616.129 417.42)" fill="#a0d4dd"/>
        <path id="Trazado_930" data-name="Trazado 930" d="M5.212,5.213a3.054,3.054,0,1,1,0-4.319A3.056,3.056,0,0,1,5.212,5.213Z" transform="translate(747.826 348.761)" fill="#a0d4dd"/>
        <path id="Trazado_931" data-name="Trazado 931" d="M5.213,5.211a3.053,3.053,0,1,1,0-4.317A3.052,3.052,0,0,1,5.213,5.211Z" transform="translate(857.49 470.096)" fill="#a0d4dd"/>
        <path id="Trazado_932" data-name="Trazado 932" d="M.474,7.723a5.495,5.495,0,1,1,7.25,2.8A5.494,5.494,0,0,1,.474,7.723Z" transform="translate(1784.174 123.402)" fill="#a0d4dd"/>
        <path id="Trazado_933" data-name="Trazado 933" d="M.472,7.723a5.5,5.5,0,1,1,7.252,2.8A5.5,5.5,0,0,1,.472,7.723Z" transform="translate(1698.717 271.467)" fill="#a0d4dd"/>
        <path id="Trazado_934" data-name="Trazado 934" d="M.368,6.008A4.274,4.274,0,1,1,6.009,8.184,4.273,4.273,0,0,1,.368,6.008Z" transform="translate(1851.82 161.619)" fill="#a0d4dd"/>
        <path id="Trazado_935" data-name="Trazado 935" d="M.368,6.006A4.274,4.274,0,1,1,6.006,8.184,4.272,4.272,0,0,1,.368,6.006Z" transform="translate(1813.466 292.832)" fill="#a0d4dd"/>
        <path id="Trazado_936" data-name="Trazado 936" d="M.369,6.008A4.274,4.274,0,1,1,6.007,8.184,4.272,4.272,0,0,1,.369,6.008Z" transform="translate(1893.572 12.201)" fill="#a0d4dd"/>
        <path id="Trazado_937" data-name="Trazado 937" d="M.367,6.007A4.274,4.274,0,1,1,6.008,8.184,4.274,4.274,0,0,1,.367,6.007Z" transform="translate(1837.872 57.818)" fill="#a0d4dd"/>
        <path id="Trazado_938" data-name="Trazado 938" d="M.368,6.008A4.275,4.275,0,1,1,6.006,8.182,4.274,4.274,0,0,1,.368,6.008Z" transform="translate(1590.196 335.357)" fill="#a0d4dd"/>
        <path id="Trazado_939" data-name="Trazado 939" d="M.368,6.007A4.274,4.274,0,1,1,6.007,8.182,4.271,4.271,0,0,1,.368,6.007Z" transform="translate(1617.74 442.706)" fill="#a0d4dd"/>
        <path id="Trazado_940" data-name="Trazado 940" d="M.368,6.009A4.275,4.275,0,1,1,6.007,8.184,4.274,4.274,0,0,1,.368,6.009Z" transform="translate(1966.706 98.739)" fill="#a0d4dd"/>
        <path id="Trazado_941" data-name="Trazado 941" d="M.263,4.291A3.053,3.053,0,1,1,4.29,5.844,3.052,3.052,0,0,1,.263,4.291Z" transform="translate(1898.716 99.628)" fill="#a0d4dd"/>
        <path id="Trazado_942" data-name="Trazado 942" d="M.263,4.291A3.053,3.053,0,1,1,4.291,5.844,3.055,3.055,0,0,1,.263,4.291Z" transform="translate(2022.71 69.612)" fill="#a0d4dd"/>
        <path id="Trazado_943" data-name="Trazado 943" d="M.263,4.292A3.054,3.054,0,1,1,4.292,5.845,3.054,3.054,0,0,1,.263,4.292Z" transform="translate(1919.42 65.969)" fill="#a0d4dd"/>
        <path id="Trazado_944" data-name="Trazado 944" d="M.262,4.292A3.053,3.053,0,1,1,4.291,5.845,3.055,3.055,0,0,1,.262,4.292Z" transform="translate(1774.625 31.288)" fill="#a0d4dd"/>
        <path id="Trazado_945" data-name="Trazado 945" d="M.262,4.291A3.053,3.053,0,1,1,4.289,5.844,3.054,3.054,0,0,1,.262,4.291Z" transform="translate(1791.283 178.871)" fill="#a0d4dd"/>
        <path id="Trazado_946" data-name="Trazado 946" d="M.263,4.29A3.053,3.053,0,1,1,4.291,5.844,3.052,3.052,0,0,1,.263,4.29Z" transform="translate(1638.609 237.517)" fill="#a0d4dd"/>
        <path id="Trazado_947" data-name="Trazado 947" d="M.37,3.519a5.5,5.5,0,1,1,3.149,7.105A5.495,5.495,0,0,1,.37,3.519Z" transform="translate(1330.672 238.905)" fill="#a0d4dd"/>
        <path id="Trazado_948" data-name="Trazado 948" d="M.37,3.518a5.5,5.5,0,1,1,3.151,7.105A5.5,5.5,0,0,1,.37,3.518Z" transform="translate(1165.547 283.178)" fill="#a0d4dd"/>
        <path id="Trazado_949" data-name="Trazado 949" d="M.287,2.738A4.275,4.275,0,1,1,2.736,8.265,4.278,4.278,0,0,1,.287,2.738Z" transform="translate(1352.704 313.256)" fill="#a0d4dd"/>
        <path id="Trazado_950" data-name="Trazado 950" d="M.287,2.738A4.275,4.275,0,1,1,2.736,8.266,4.277,4.277,0,0,1,.287,2.738Z" transform="translate(1232.801 378.917)" fill="#a0d4dd"/>
        <path id="Trazado_951" data-name="Trazado 951" d="M.288,2.735A4.274,4.274,0,1,1,2.737,8.261,4.275,4.275,0,0,1,.288,2.735Z" transform="translate(1487.881 237.127)" fill="#a0d4dd"/>
        <path id="Trazado_952" data-name="Trazado 952" d="M.288,2.737A4.273,4.273,0,1,1,2.737,8.263,4.269,4.269,0,0,1,.288,2.737Z" transform="translate(1416.24 229.996)" fill="#a0d4dd"/>
        <path id="Trazado_953" data-name="Trazado 953" d="M.287,2.736A4.274,4.274,0,1,1,2.737,8.262,4.276,4.276,0,0,1,.287,2.736Z" transform="translate(1044.855 251.113)" fill="#a0d4dd"/>
        <path id="Trazado_954" data-name="Trazado 954" d="M.287,2.739A4.274,4.274,0,1,1,2.737,8.264,4.273,4.273,0,0,1,.287,2.739Z" transform="translate(988.426 346.494)" fill="#a0d4dd"/>
        <path id="Trazado_955" data-name="Trazado 955" d="M.288,2.736A4.275,4.275,0,1,1,2.737,8.264,4.276,4.276,0,0,1,.288,2.736Z" transform="translate(1478.403 350.031)" fill="#a0d4dd"/>
        <path id="Trazado_956" data-name="Trazado 956" d="M.206,1.956A3.053,3.053,0,1,1,1.956,5.9,3.054,3.054,0,0,1,.206,1.956Z" transform="translate(1430.92 302.076)" fill="#a0d4dd"/>
        <path id="Trazado_957" data-name="Trazado 957" d="M.2,1.956A3.054,3.054,0,1,1,1.956,5.9,3.058,3.058,0,0,1,.2,1.956Z" transform="translate(1539.822 368.53)" fill="#a0d4dd"/>
        <path id="Trazado_958" data-name="Trazado 958" d="M.2,1.955A3.054,3.054,0,1,1,1.956,5.9,3.053,3.053,0,0,1,.2,1.955Z" transform="translate(1469.36 292.917)" fill="#a0d4dd"/>
        <path id="Trazado_959" data-name="Trazado 959" d="M.206,1.956A3.053,3.053,0,1,1,1.954,5.9,3.053,3.053,0,0,1,.206,1.956Z" transform="translate(1391.498 166.008)" fill="#a0d4dd"/>
        <path id="Trazado_960" data-name="Trazado 960" d="M.2,1.954A3.054,3.054,0,1,1,1.956,5.9,3.053,3.053,0,0,1,.2,1.954Z" transform="translate(1298.92 282.143)" fill="#a0d4dd"/>
        <path id="Trazado_961" data-name="Trazado 961" d="M.205,1.957A3.054,3.054,0,1,1,1.956,5.9,3.054,3.054,0,0,1,.205,1.957Z" transform="translate(1149.494 215.656)" fill="#a0d4dd"/>
      </g>
    </g>
  </g>
</svg>
