<?xml version="1.0" encoding="utf-8"?>
<!-- Generator: Adobe Illustrator 23.0.4, SVG Export Plug-In . SVG Version: 6.00 Build 0)  -->
<svg version="1.1" id="Capa_1" xmlns="http://www.w3.org/2000/svg" xmlns:xlink="http://www.w3.org/1999/xlink" x="0px" y="0px"
	 viewBox="0 0 98 71.8" style="enable-background:new 0 0 98 71.8;" xml:space="preserve">
<style type="text/css">
	.st0{fill:#FFFFFF;}
	.st1{clip-path:url(#SVGID_3_);}
</style>
<g transform="translate(-218.924 -513.579)">
	
		<rect x="284.4" y="583" transform="matrix(0.4999 -0.8661 0.8661 0.4999 -362.996 538.5781)" class="st0" width="0.9" height="1.2"/>
	
		<rect x="282.3" y="581.8" transform="matrix(0.4999 -0.8661 0.8661 0.4999 -362.9915 536.1625)" class="st0" width="0.9" height="1.2"/>
	
		<rect x="280.2" y="580.6" transform="matrix(0.5001 -0.866 0.866 0.5001 -362.9605 533.6048)" class="st0" width="0.9" height="1.2"/>
	
		<rect x="278.1" y="579.4" transform="matrix(0.4999 -0.8661 0.8661 0.4999 -362.9816 531.3315)" class="st0" width="0.9" height="1.2"/>
	
		<rect x="276.1" y="578.1" transform="matrix(0.5001 -0.866 0.866 0.5001 -362.9507 528.7757)" class="st0" width="0.9" height="1.2"/>
	
		<rect x="273.9" y="576.9" transform="matrix(0.4999 -0.8661 0.8661 0.4999 -362.973 526.4009)" class="st0" width="0.9" height="1.2"/>
	<path class="st0" d="M287,585.4l-0.8-0.4l0.5-0.8l0.3,0.2l0.3-0.2l0.5,0.8L287,585.4z"/>
	<path class="st0" d="M289.4,582.9l-1.1,0.6l0.5,0.8l1.1-0.6L289.4,582.9z M291.5,581.7l-1,0.6l0.5,0.8l1-0.6L291.5,581.7z
		 M293.6,580.5l-1.1,0.6l0.5,0.8l1.1-0.6L293.6,580.5z M295.7,579.3l-1.1,0.6l0.5,0.8l1-0.6L295.7,579.3z M297.8,578.1l-1,0.6
		l0.5,0.8l1.1-0.6L297.8,578.1z M299.9,576.8l-1.1,0.6l0.5,0.8l1.1-0.6L299.9,576.8z M302,575.6l-1.1,0.6l0.5,0.8l1-0.6L302,575.6z
		 M304.1,574.4l-1,0.6l0.5,0.8l1.1-0.6L304.1,574.4z M306.2,573.2l-1.1,0.6l0.5,0.8l1.1-0.6L306.2,573.2z M308.3,572l-1.1,0.6
		l0.5,0.8l1-0.6L308.3,572z M310.4,570.8l-1,0.6l0.5,0.8l1.1-0.6L310.4,570.8z M312.5,569.6l-1.1,0.6l0.5,0.8l1.1-0.6L312.5,569.6z
		 M314.6,568.3l-1,0.6l0.5,0.8l1-0.6L314.6,568.3z"/>
	<path class="st0" d="M316.2,568.5l-0.5-0.8l0.3-0.2v-0.3h0.9v0.9L316.2,568.5z"/>
	<path class="st0" d="M316,564.8v1.2h0.9v-1.2H316z M316,562.4v1.2h0.9v-1.2H316z M316,559.9v1.2h0.9v-1.2H316z M316,557.5v1.2h0.9
		v-1.2H316z M316,555.1v1.2h0.9v-1.2H316z M316,552.6v1.2h0.9v-1.2H316z M316,550.2v1.2h0.9v-1.2H316z M316,547.8v1.2h0.9v-1.2H316z
		 M316,545.3v1.2h0.9v-1.2H316z M316,542.9v1.2h0.9v-1.2H316z M316,540.5v1.2h0.9v-1.2H316z M316,538v1.2h0.9V538H316z M316,535.6
		v1.2h0.9v-1.2H316z"/>
	<path class="st0" d="M292.1,517.1l-0.5,0.8l1,0.7l0.5-0.8L292.1,517.1z M294.1,518.4l-0.5,0.8l1,0.7l0.5-0.8L294.1,518.4z
		 M296.1,519.8l-0.5,0.8l1,0.7l0.5-0.8L296.1,519.8z M298.2,521.1l-0.5,0.8l1,0.7l0.5-0.8L298.2,521.1z M300.2,522.4l-0.5,0.8l1,0.7
		l0.5-0.8L300.2,522.4z M302.2,523.7l-0.5,0.8l1,0.7l0.5-0.8L302.2,523.7z M304.2,525.1l-0.5,0.8l1,0.7l0.5-0.8L304.2,525.1z
		 M306.2,526.4l-0.5,0.8l1,0.7l0.5-0.8L306.2,526.4z M308.2,527.7l-0.5,0.8l1,0.7l0.5-0.8L308.2,527.7z M310.2,529.1l-0.5,0.8l1,0.7
		l0.5-0.8L310.2,529.1z M312.2,530.4l-0.5,0.8l1,0.7l0.5-0.8L312.2,530.4z M314.2,531.7l-0.5,0.8l1,0.7l0.5-0.8L314.2,531.7z"/>
	<path class="st0" d="M291.1,516.4l-0.5,0.8l-1-0.7l0.5-0.8L291.1,516.4z"/>
	<g transform="translate(218.924 521.328)">
		<path class="st0" d="M53.6,54.6l14.5-25.1L51.1,0H17L0,29.5L17,59h34l2.1-3.5l-0.5-0.3l0.5-0.8L53.6,54.6z M39,47.2l-0.8-0.4
			L38.1,46l0.9-0.1v0.3l0.3,0.1L39,47.2z M39.1,21v1.2h-0.9V21H39.1z M38.1,19.7v-1.3H39v1.3H38.1z M39.1,23.4v1.2h-0.9v-1.2H39.1z
			 M39.1,25.9v1.2h-0.9v-1.2H39.1z M39.1,28.4v1.2h-0.9v-1.2H39.1z M39.1,30.9v1.2h-0.9v-1.2C38.2,30.9,39.1,30.9,39.1,30.9z
			 M39.1,33.4v1.3h-0.9v-1.3H39.1z M39.1,35.9v1.2h-0.9v-1.2H39.1z M39.1,38.4v1.2h-0.9v-1.2H39.1z M39.1,40.9v1.2h-0.9v-1.2H39.1z
			 M39.1,43.4v1.2h-0.9v-1.2H39.1z M39.6,15.9c-0.1,0.1-0.3,0.2-0.5,0.2l0,0v1.1h-0.9v-1.1c-0.9-0.3-1.5-1.2-1.2-2.1
			c0.2-0.6,0.6-1,1.2-1.2c0.2,0,0.3-0.1,0.5-0.1l0,0c0.2,0,0.3,0,0.5,0.1c0.2,0,0.3,0.1,0.5,0.2c0.2,0.1,0.3,0.3,0.5,0.5
			c0.2,0.3,0.3,0.6,0.3,1c0,0.3-0.1,0.7-0.3,1C39.9,15.6,39.8,15.8,39.6,15.9L39.6,15.9z M41,48.4l-1.1-0.6l0.5-0.8l1,0.6L41,48.4z
			 M43.1,49.6l-1-0.6l0.5-0.8l1.1,0.6L43.1,49.6z M45.2,50.9l-1.1-0.6l0.5-0.8l1.1,0.6L45.2,50.9z M47.3,52.1l-1.1-0.6l0.5-0.8
			l1,0.6L47.3,52.1z M49.4,53.3l-1-0.6l0.5-0.8l1.1,0.6L49.4,53.3z M51.5,54.5l-1.1-0.6l0.5-0.8l1.1,0.6L51.5,54.5z"/>
	</g>
	<g transform="translate(286.838 513.579)">
		<path class="st0" d="M2.7,0.3C1.9-0.2,0.8,0,0.3,0.8S0,2.6,0.8,3.2c0.8,0.5,1.9,0.3,2.4-0.5l0,0C3.7,1.9,3.5,0.8,2.7,0.3z"/>
		<g>
			<g>
				<path id="SVGID_1_" class="st0" d="M2.7,0.3C1.9-0.2,0.8,0,0.3,0.8S0,2.6,0.8,3.2c0.8,0.5,1.9,0.3,2.4-0.5l0,0
					C3.7,1.9,3.5,0.8,2.7,0.3z"/>
			</g>
			<g>
				<defs>
					<path id="SVGID_2_" d="M2.7,0.3C1.9-0.2,0.8,0,0.3,0.8S0,2.6,0.8,3.2c0.8,0.5,1.9,0.3,2.4-0.5l0,0C3.7,1.9,3.5,0.8,2.7,0.3z"/>
				</defs>
				<use xlink:href="#SVGID_2_"  style="overflow:visible;fill:#FFFFFF;"/>
				<clipPath id="SVGID_3_">
					<use xlink:href="#SVGID_2_"  style="overflow:visible;"/>
				</clipPath>
				<g class="st1">
					<rect x="-0.2" y="-0.2" class="st0" width="0.1" height="3.9"/>
					<rect x="-0.2" y="-0.2" class="st0" width="0.5" height="3.9"/>
					<rect x="0.3" y="-0.2" class="st0" width="0.5" height="3.9"/>
					<rect x="0.8" y="-0.2" class="st0" width="0.5" height="3.9"/>
					<rect x="1.2" y="-0.2" class="st0" width="0.5" height="3.9"/>
					<rect x="1.7" y="-0.2" class="st0" width="0.5" height="3.9"/>
					<rect x="2.2" y="-0.2" class="st0" width="0.5" height="3.9"/>
					<rect x="2.7" y="-0.2" class="st0" width="0.5" height="3.9"/>
					<rect x="3.1" y="-0.2" class="st0" width="0.5" height="3.9"/>
					<rect x="3.6" y="-0.2" class="st0" width="0.1" height="3.9"/>
				</g>
			</g>
		</g>
	</g>
	<path class="st0" d="M314.2,534.8l-1,0.7l0.5,0.8l1-0.7L314.2,534.8z M312.1,536.1l-1,0.7l0.5,0.8l1-0.7L312.1,536.1z M310.1,537.5
		l-1,0.7l0.5,0.8l1-0.7L310.1,537.5z M308.1,538.9l-1,0.7l0.5,0.8l1-0.7L308.1,538.9z M306,540.2l-1,0.7l0.5,0.8l1-0.7L306,540.2z
		 M304,541.6l-1,0.7l0.5,0.8l1-0.7L304,541.6z M301.9,543l-1,0.7l0.5,0.8l1-0.7L301.9,543z M299.9,544.3l-1,0.7l0.5,0.8l1-0.7
		L299.9,544.3z M297.9,545.7l-1,0.7l0.5,0.8l1-0.7L297.9,545.7z M295.8,547.1l-1,0.7l0.5,0.8l1-0.7L295.8,547.1z"/>
	<path class="st0" d="M316.9,533.5v0.9h-0.6l-0.7,0.4l-0.5-0.8l0.6-0.4l0,0l0.4-0.6L316.9,533.5z"/>
</g>
</svg>
