<svg xmlns="http://www.w3.org/2000/svg" width="1028.917" height="895.509" viewBox="0 0 1028.917 895.509"><g transform="translate(-114.492 -7355.697) rotate(61)"><g transform="translate(6733.68 2787.02)"><g transform="translate(12.315 251.885)"><rect width="5.776" height="6.739" fill="#fff"/></g><g transform="translate(12.315 272.454)"><path d="M6752.248,3415.781h-5.776v-13.831h5.776Zm0-27.66h-5.776V3374.29h5.776Zm0-27.661h-5.776v-13.831h5.776Zm0-27.661h-5.776v-13.831h5.776Zm0-27.661h-5.776v-13.829h5.776Zm0-27.66h-5.776v-13.83h5.776Zm0-27.661h-5.776v-13.83h5.776Zm0-27.66h-5.776v-13.829h5.776Zm0-27.661h-5.776v-13.831h5.776Zm0-27.66h-5.776V3153h5.776Zm0-27.66h-5.776v-13.832h5.776Zm0-27.662h-5.776v-13.83h5.776Zm0-27.66h-5.776v-13.832h5.776Z" transform="translate(-6746.472 -3070.021)" fill="#fff"/></g><g transform="translate(12.315 632.044)"><path d="M6753.752,3456.141l-7.28-4.2v-8.407h5.776v5.071l4.393,2.537Z" transform="translate(-6746.472 -3443.531)" fill="#fff"/></g><g transform="translate(31.177 646.339)"><path d="M7078.8,3643.938l-11.582-6.687,2.888-5,11.583,6.688Zm-23.166-13.375-11.581-6.687,2.889-5,11.581,6.686Zm-23.164-13.374-11.583-6.687,2.889-5,11.582,6.688Zm-23.166-13.375-11.582-6.687,2.888-5,11.583,6.687Zm-23.166-13.375-11.581-6.688,2.888-5,11.582,6.687Zm-23.164-13.374-11.583-6.687,2.889-5,11.583,6.687Zm-23.166-13.374L6928.223,3557l2.889-5,11.582,6.687Zm-23.165-13.375-11.583-6.687,2.889-5,11.582,6.688Zm-23.166-13.375-11.582-6.686,2.888-5,11.582,6.686Zm-23.165-13.373-11.583-6.687,2.888-5,11.584,6.688Zm-23.166-13.375-11.582-6.687,2.887-5,11.584,6.687Zm-23.165-13.374-11.583-6.688,2.888-5,11.584,6.687Zm-23.165-13.374-11.583-6.687,2.888-5,11.583,6.688Zm-23.165-13.375-11.584-6.687,2.888-5,11.585,6.687Z" transform="translate(-6766.064 -3458.38)" fill="#fff"/></g><g transform="translate(355.494 833.584)"><path d="M7110.217,3662.078l-7.281-4.2,2.888-5,4.393,2.536,4.392-2.536,2.888,5Z" transform="translate(-7102.936 -3652.873)" fill="#fff"/></g><g transform="translate(378.749 646.339)"><path d="M7129.979,3643.939l-2.888-5,11.583-6.688,2.888,5Zm23.166-13.376-2.888-5,11.584-6.687,2.888,5Zm23.166-13.373-2.889-5,11.583-6.688,2.888,5Zm23.166-13.375-2.888-5,11.583-6.687,2.888,5Zm23.166-13.375-2.888-5,11.583-6.687,2.888,5Zm23.166-13.375-2.888-5,11.583-6.687,2.889,5Zm23.166-13.373-2.889-5,11.583-6.687,2.889,5Zm23.165-13.375-2.888-5,11.583-6.688,2.889,5Zm23.167-13.375-2.889-5,11.583-6.687,2.888,5Zm23.165-13.374-2.889-5,11.584-6.688,2.888,5Zm23.166-13.375-2.888-5,11.583-6.687,2.889,5Zm23.165-13.374-2.888-5,11.583-6.687,2.889,5Zm23.167-13.375-2.889-5,11.583-6.688,2.888,5Zm23.164-13.375-2.889-5,11.584-6.687,2.888,5Z" transform="translate(-7127.092 -3458.38)" fill="#fff"/></g><g transform="translate(703.066 632.044)"><path d="M7466.851,3456.141l-2.888-5,4.391-2.537v-5.071h5.777v8.407Z" transform="translate(-7463.963 -3443.531)" fill="#fff"/></g><g transform="translate(707.457 257.557)"><path d="M7474.3,3415.661h-5.776v-13.375h5.776Zm0-26.75h-5.776v-13.374h5.776Zm0-26.749h-5.776v-13.375h5.776Zm0-26.749h-5.776v-13.374h5.776Zm0-26.75h-5.776v-13.375h5.776Zm0-26.749h-5.776V3268.54h5.776Zm0-26.749h-5.776v-13.375h5.776Zm0-26.75h-5.776v-13.374h5.776Zm0-26.75h-5.776v-13.374h5.776Zm0-26.749h-5.776v-13.374h5.776Zm0-26.75h-5.776v-13.375h5.776Zm0-26.748h-5.776v-13.375h5.776Zm0-26.749h-5.776V3081.3h5.776Zm0-26.75h-5.776v-13.374h5.776Z" transform="translate(-7468.524 -3054.547)" fill="#fff"/></g><g transform="translate(703.133 231.31)"><path d="M7474.134,3040.156h-5.777v-5.19l-4.323-2.87,3.194-4.812,6.906,4.583Z" transform="translate(-7464.033 -3027.284)" fill="#fff"/></g><g transform="translate(390.009 23.524)"><path d="M7440.729,3016.632l-11.184-7.42,3.195-4.813,11.183,7.42Zm-22.366-14.841-11.184-7.421,3.195-4.814,11.183,7.422ZM7396,2986.948l-11.183-7.421,3.194-4.813,11.184,7.42Zm-22.365-14.842-11.185-7.42,3.2-4.814,11.183,7.421Zm-22.367-14.841-11.182-7.421,3.194-4.813,11.183,7.421Zm-22.366-14.842L7317.715,2935l3.194-4.814,11.183,7.421Zm-22.365-14.842-11.183-7.421,3.2-4.814,11.183,7.421Zm-22.366-14.842-11.183-7.422,3.195-4.813,11.182,7.422ZM7261.8,2897.9l-11.184-7.42,3.195-4.814,11.184,7.421Zm-22.367-14.841-11.183-7.42,3.2-4.814,11.182,7.42Zm-22.365-14.841-11.185-7.422,3.2-4.813,11.183,7.422Zm-22.366-14.842-11.183-7.421,3.194-4.814,11.184,7.421Zm-22.366-14.842-11.183-7.421,3.194-4.813,11.184,7.421Zm-22.366-14.841-11.183-7.422,3.195-4.813,11.184,7.422Z" transform="translate(-7138.787 -2811.454)" fill="#fff"/></g><g transform="translate(373.211 12.377)"><rect width="5.776" height="6.739" transform="translate(0 4.813) rotate(-56.436)" fill="#fff"/></g><g transform="translate(0 237.442)"><path d="M6733.68,3048.856a15.2,15.2,0,1,1,15.2,15.2A15.2,15.2,0,0,1,6733.68,3048.856Z" transform="translate(-6733.68 -3033.654)" fill="#fff"/></g><g transform="translate(360.238)"><path d="M7131.473,2789.556a15.2,15.2,0,1,0,4.261,21.073A15.2,15.2,0,0,0,7131.473,2789.556Z" transform="translate(-7107.863 -2787.02)" fill="#fff"/></g></g><g transform="translate(7142.155 3022.064)"><g transform="translate(20.391)"><path d="M7182.366,3223.608l-3.218-4.8,11.194-7.505,3.217,4.8Zm22.389-15.012-3.218-4.8,11.2-7.5,3.218,4.8Zm22.39-15.012-3.217-4.8,11.194-7.506,3.217,4.8Zm22.39-15.011-3.217-4.8,11.194-7.506,3.218,4.8Zm22.39-15.011-3.218-4.8,11.195-7.507,3.218,4.8Zm22.389-15.012-3.216-4.8,11.194-7.506,3.216,4.8Zm22.389-15.013-3.216-4.8,11.195-7.506,3.218,4.8Zm22.39-15.011-3.217-4.8,11.194-7.506,3.218,4.8Zm22.39-15.012-3.217-4.8,11.2-7.506,3.217,4.8Zm22.39-15.011-3.217-4.8,11.194-7.506,3.217,4.8Zm22.39-15.012-3.217-4.8,11.194-7.506,3.217,4.8Zm22.39-15.012-3.217-4.8,11.194-7.505,3.217,4.8Zm22.389-15.012-3.216-4.8,11.194-7.505,3.216,4.8Z" transform="translate(-7179.148 -3031.163)" fill="#fff"/></g><g transform="translate(0 179.399)"><path d="M7164.706,3220.083a15.2,15.2,0,1,0,21.093,4.161A15.2,15.2,0,0,0,7164.706,3220.083Z" transform="translate(-7157.967 -3217.507)" fill="#fff"/></g></g></g></svg>